<svg width="40" height="72" viewBox="0 0 40 72" fill="none" xmlns="http://www.w3.org/2000/svg">
<path d="M0.253906 26.1L18.7539 22V72H39.7539V0.499997L0.253906 7.8V26.1Z" fill="#F2E5FE"/>
<path d="M0.253906 26.1H-1.24609V27.9688L0.578464 27.5645L0.253906 26.1ZM18.7539 22H20.2539V20.1312L18.4293 20.5355L18.7539 22ZM18.7539 72H17.2539V73.5H18.7539V72ZM39.7539 72V73.5H41.2539V72H39.7539ZM39.7539 0.499997H41.2539V-1.30262L39.4813 -0.975025L39.7539 0.499997ZM0.253906 7.8L-0.0186925 6.32498L-1.24609 6.55181V7.8H0.253906ZM0.578464 27.5645L19.0785 23.4645L18.4293 20.5355L-0.0706508 24.6355L0.578464 27.5645ZM17.2539 22V72H20.2539V22H17.2539ZM18.7539 73.5H39.7539V70.5H18.7539V73.5ZM41.2539 72V0.499997H38.2539V72H41.2539ZM39.4813 -0.975025L-0.0186925 6.32498L0.526506 9.27502L40.0265 1.97502L39.4813 -0.975025ZM-1.24609 7.8V26.1H1.75391V7.8H-1.24609Z" fill="#ABABAB"/>
</svg>
