<svg width="40" height="43" viewBox="0 0 40 43" fill="none" xmlns="http://www.w3.org/2000/svg">
<path d="M0.2 43H39.44V31H24.02L31.58 25.18C33.5 23.7 35.04 22.08 36.2 20.32C37.36 18.52 37.94 16.46 37.94 14.14C37.94 12.34 37.54 10.6 36.74 8.92C35.98 7.24 34.84 5.74 33.32 4.42C31.84 3.06 30 2 27.8 1.24C25.64 0.439998 23.18 0.0399988 20.42 0.0399988C16.34 0.0399988 12.92 0.859999 10.16 2.5C7.44 4.1 5.4 6.2 4.04 8.8C2.68 11.4 2 14.2 2 17.2H14.9C14.9 16.08 15.1 15.06 15.5 14.14C15.94 13.22 16.54 12.5 17.3 11.98C18.06 11.42 18.94 11.14 19.94 11.14C20.7 11.14 21.34 11.26 21.86 11.5C22.42 11.7 22.88 11.98 23.24 12.34C23.6 12.7 23.86 13.12 24.02 13.6C24.18 14.08 24.26 14.58 24.26 15.1C24.26 16.18 24.02 17.2 23.54 18.16C23.06 19.12 22.36 20.12 21.44 21.16C20.56 22.16 19.5 23.34 18.26 24.7L0.2 43Z" fill="#F2E5FE"/>
</svg>
