<svg width="66" height="72" viewBox="0 0 66 72" fill="none" xmlns="http://www.w3.org/2000/svg">
<path d="M0.0507814 72H65.4508V52H39.7508L52.3508 42.3C55.5508 39.8333 58.1174 37.1333 60.0508 34.2C61.9841 31.2 62.9508 27.7667 62.9508 23.9C62.9508 20.9 62.2841 18 60.9508 15.2C59.6841 12.4 57.7841 9.9 55.2508 7.7C52.7841 5.43333 49.7175 3.66666 46.0508 2.4C42.4508 1.06666 38.3508 0.399998 33.7508 0.399998C26.9508 0.399998 21.2508 1.76666 16.6508 4.5C12.1174 7.16666 8.71745 10.6667 6.45078 15C4.18411 19.3333 3.05078 24 3.05078 29H24.5508C24.5508 27.1333 24.8841 25.4333 25.5508 23.9C26.2841 22.3667 27.2841 21.1667 28.5508 20.3C29.8174 19.3667 31.2841 18.9 32.9508 18.9C34.2175 18.9 35.2841 19.1 36.1508 19.5C37.0841 19.8333 37.8508 20.3 38.4508 20.9C39.0508 21.5 39.4841 22.2 39.7508 23C40.0175 23.8 40.1508 24.6333 40.1508 25.5C40.1508 27.3 39.7508 29 38.9508 30.6C38.1508 32.2 36.9841 33.8667 35.4508 35.6C33.9841 37.2667 32.2175 39.2333 30.1508 41.5L0.0507814 72Z" fill="#F2E5FE"/>
</svg>
