<svg width="66" height="72" viewBox="0 0 66 72" fill="none" xmlns="http://www.w3.org/2000/svg">
<path d="M0.0507814 72H65.4508V52H39.7508L52.3508 42.3C55.5508 39.8333 58.1174 37.1333 60.0508 34.2C61.9841 31.2 62.9508 27.7667 62.9508 23.9C62.9508 20.9 62.2841 18 60.9508 15.2C59.6841 12.4 57.7841 9.9 55.2508 7.7C52.7841 5.43333 49.7175 3.66666 46.0508 2.4C42.4508 1.06666 38.3508 0.399998 33.7508 0.399998C26.9508 0.399998 21.2508 1.76666 16.6508 4.5C12.1174 7.16666 8.71745 10.6667 6.45078 15C4.18411 19.3333 3.05078 24 3.05078 29H24.5508C24.5508 27.1333 24.8841 25.4333 25.5508 23.9C26.2841 22.3667 27.2841 21.1667 28.5508 20.3C29.8174 19.3667 31.2841 18.9 32.9508 18.9C34.2175 18.9 35.2841 19.1 36.1508 19.5C37.0841 19.8333 37.8508 20.3 38.4508 20.9C39.0508 21.5 39.4841 22.2 39.7508 23C40.0175 23.8 40.1508 24.6333 40.1508 25.5C40.1508 27.3 39.7508 29 38.9508 30.6C38.1508 32.2 36.9841 33.8667 35.4508 35.6C33.9841 37.2667 32.2175 39.2333 30.1508 41.5L0.0507814 72Z" fill="#A0F9FA"/>
<path d="M0.0507814 72L-1.01686 70.9464L-3.537 73.5H0.0507814V72ZM65.4508 72V73.5H66.9508V72H65.4508ZM65.4508 52H66.9508V50.5H65.4508V52ZM39.7508 52L38.8358 50.8114L35.3434 53.5H39.7508V52ZM52.3508 42.3L53.2658 43.4886L53.2665 43.488L52.3508 42.3ZM60.0508 34.2L61.3032 35.0255L61.3075 35.019L61.3116 35.0126L60.0508 34.2ZM60.9508 15.2L59.5841 15.8182L59.5902 15.8316L59.5965 15.8449L60.9508 15.2ZM55.2508 7.7L54.2358 8.80449L54.2514 8.81874L54.2673 8.83255L55.2508 7.7ZM46.0508 2.4L45.5298 3.80662L45.5453 3.81237L45.561 3.81778L46.0508 2.4ZM16.6508 4.5L17.4113 5.79291L17.417 5.78952L16.6508 4.5ZM6.45078 15L5.12163 14.3047L5.12163 14.3047L6.45078 15ZM3.05078 29H1.55078V30.5H3.05078V29ZM24.5508 29V30.5H26.0508V29H24.5508ZM25.5508 23.9L24.1976 23.2528L24.1859 23.2772L24.1752 23.3019L25.5508 23.9ZM28.5508 20.3L29.3978 21.538L29.4195 21.5231L29.4406 21.5076L28.5508 20.3ZM36.1508 19.5L35.5222 20.8619L35.5831 20.89L35.6463 20.9126L36.1508 19.5ZM39.7508 23L38.3278 23.4743L38.3278 23.4743L39.7508 23ZM38.9508 30.6L37.6091 29.9292L37.6091 29.9292L38.9508 30.6ZM35.4508 35.6L34.3273 34.6061L34.3247 34.6091L35.4508 35.6ZM30.1508 41.5L31.2184 42.5536L31.2392 42.5325L31.2592 42.5106L30.1508 41.5ZM0.0507814 73.5H65.4508V70.5H0.0507814V73.5ZM66.9508 72V52H63.9508V72H66.9508ZM65.4508 50.5H39.7508V53.5H65.4508V50.5ZM40.6658 53.1886L53.2658 43.4886L51.4358 41.1114L38.8358 50.8114L40.6658 53.1886ZM53.2665 43.488C56.5787 40.9349 59.2659 38.1165 61.3032 35.0255L58.7983 33.3745C56.969 36.1501 54.5229 38.7317 51.435 41.112L53.2665 43.488ZM61.3116 35.0126C63.4141 31.7501 64.4508 28.0298 64.4508 23.9H61.4508C61.4508 27.5035 60.5541 30.6499 58.7899 33.3874L61.3116 35.0126ZM64.4508 23.9C64.4508 20.6692 63.731 17.5496 62.3051 14.5551L59.5965 15.8449C60.8372 18.4504 61.4508 21.1308 61.4508 23.9H64.4508ZM62.3174 14.5817C60.9537 11.5672 58.9158 8.89608 56.2343 6.56745L54.2673 8.83255C56.6525 10.9039 58.4145 13.2328 59.5841 15.8182L62.3174 14.5817ZM56.2657 6.59551C53.6253 4.16916 50.3714 2.3056 46.5406 0.982211L45.561 3.81778C49.0635 5.02772 51.943 6.6975 54.2358 8.80449L56.2657 6.59551ZM46.5718 0.993373C42.7756 -0.412609 38.4943 -1.1 33.7508 -1.1V1.9C38.2073 1.9 42.126 2.54594 45.5298 3.80662L46.5718 0.993373ZM33.7508 -1.1C26.7531 -1.1 20.7713 0.306751 15.8845 3.21047L17.417 5.78952C21.7303 3.22658 27.1485 1.9 33.7508 1.9V-1.1ZM15.8903 3.2071C11.1342 6.00475 7.5281 9.70415 5.12163 14.3047L7.77993 15.6952C9.90679 11.6292 13.1007 8.32857 17.4113 5.7929L15.8903 3.2071ZM5.12163 14.3047C2.74015 18.8576 1.55078 23.7635 1.55078 29H4.55078C4.55078 24.2365 5.62808 19.8091 7.77993 15.6952L5.12163 14.3047ZM3.05078 30.5H24.5508V27.5H3.05078V30.5ZM26.0508 29C26.0508 27.3151 26.3508 25.8219 26.9264 24.4981L24.1752 23.3019C23.4174 25.0448 23.0508 26.9516 23.0508 29H26.0508ZM26.904 24.5472C27.536 23.2256 28.3717 22.24 29.3978 21.538L27.7038 19.062C26.1965 20.0933 25.0322 21.5077 24.1976 23.2528L26.904 24.5472ZM29.4406 21.5076C30.4337 20.7758 31.5841 20.4 32.9508 20.4V17.4C30.9841 17.4 29.2012 17.9575 27.661 19.0924L29.4406 21.5076ZM32.9508 20.4C34.068 20.4 34.9059 20.5775 35.5222 20.8619L36.7794 18.1381C35.6623 17.6225 34.3669 17.4 32.9508 17.4V20.4ZM35.6463 20.9126C36.4054 21.1837 36.9714 21.542 37.3901 21.9607L39.5114 19.8393C38.7301 19.058 37.7628 18.4829 36.6553 18.0874L35.6463 20.9126ZM37.3901 21.9607C37.8265 22.3971 38.1352 22.8967 38.3278 23.4743L41.1738 22.5257C40.833 21.5033 40.275 20.6029 39.5114 19.8393L37.3901 21.9607ZM38.3278 23.4743C38.542 24.1172 38.6508 24.79 38.6508 25.5H41.6508C41.6508 24.4766 41.4929 23.4828 41.1738 22.5257L38.3278 23.4743ZM38.6508 25.5C38.6508 27.0686 38.3043 28.5388 37.6091 29.9292L40.2924 31.2708C41.1972 29.4612 41.6508 27.5314 41.6508 25.5H38.6508ZM37.6091 29.9292C36.8817 31.3841 35.798 32.9436 34.3273 34.6061L36.5743 36.5939C38.1702 34.7898 39.4199 33.0159 40.2924 31.2708L37.6091 29.9292ZM34.3247 34.6091C32.8656 36.2672 31.1051 38.227 29.0423 40.4894L31.2592 42.5106C33.3298 40.2397 35.1027 38.2662 36.5769 36.5909L34.3247 34.6091ZM29.0831 40.4464L-1.01686 70.9464L1.11842 73.0536L31.2184 42.5536L29.0831 40.4464Z" fill="#ABABAB"/>
</svg>
