<svg width="96" height="97" viewBox="0 0 96 97" fill="none" xmlns="http://www.w3.org/2000/svg">
<g filter="url(#filter0_d_404_113)">
<rect x="4" y="4" width="82" height="83" rx="15" fill="white"/>
<rect x="5.5" y="5.5" width="79" height="80" rx="13.5" stroke="#CB97FB" stroke-width="3"/>
</g>
<path d="M24.2 66H63.44V54H48.02L55.58 48.18C57.5 46.7 59.04 45.08 60.2 43.32C61.36 41.52 61.94 39.46 61.94 37.14C61.94 35.34 61.54 33.6 60.74 31.92C59.98 30.24 58.84 28.74 57.32 27.42C55.84 26.06 54 25 51.8 24.24C49.64 23.44 47.18 23.04 44.42 23.04C40.34 23.04 36.92 23.86 34.16 25.5C31.44 27.1 29.4 29.2 28.04 31.8C26.68 34.4 26 37.2 26 40.2H38.9C38.9 39.08 39.1 38.06 39.5 37.14C39.94 36.22 40.54 35.5 41.3 34.98C42.06 34.42 42.94 34.14 43.94 34.14C44.7 34.14 45.34 34.26 45.86 34.5C46.42 34.7 46.88 34.98 47.24 35.34C47.6 35.7 47.86 36.12 48.02 36.6C48.18 37.08 48.26 37.58 48.26 38.1C48.26 39.18 48.02 40.2 47.54 41.16C47.06 42.12 46.36 43.12 45.44 44.16C44.56 45.16 43.5 46.34 42.26 47.7L24.2 66Z" fill="#A0F9FA"/>
<path d="M24.2 66L23.4882 65.2976L21.8081 67H24.2V66ZM63.44 66V67H64.44V66H63.44ZM63.44 54H64.44V53H63.44V54ZM48.02 54L47.41 53.2076L45.0817 55H48.02V54ZM55.58 48.18L56.19 48.9724L56.1905 48.972L55.58 48.18ZM60.2 43.32L61.035 43.8703L61.0406 43.8617L60.2 43.32ZM60.74 31.92L59.8289 32.3322L59.8329 32.3411L59.8371 32.3499L60.74 31.92ZM57.32 27.42L56.6434 28.1563L56.6537 28.1658L56.6643 28.175L57.32 27.42ZM51.8 24.24L51.4527 25.1777L51.463 25.1816L51.4735 25.1852L51.8 24.24ZM34.16 25.5L34.667 26.3619L34.6708 26.3597L34.16 25.5ZM28.04 31.8L27.1539 31.3365L27.1539 31.3365L28.04 31.8ZM26 40.2H25V41.2H26V40.2ZM38.9 40.2V41.2H39.9V40.2H38.9ZM39.5 37.14L38.5979 36.7085L38.5901 36.7248L38.5829 36.7413L39.5 37.14ZM41.3 34.98L41.8647 35.8053L41.8791 35.7954L41.8932 35.7851L41.3 34.98ZM45.86 34.5L45.4409 35.408L45.4815 35.4267L45.5237 35.4417L45.86 34.5ZM48.02 36.6L47.0713 36.9162L47.0713 36.9162L48.02 36.6ZM47.54 41.16L46.6456 40.7128L46.6456 40.7128L47.54 41.16ZM45.44 44.16L44.691 43.4974L44.6893 43.4994L45.44 44.16ZM42.26 47.7L42.9718 48.4024L42.9856 48.3884L42.999 48.3738L42.26 47.7ZM24.2 67H63.44V65H24.2V67ZM64.44 66V54H62.44V66H64.44ZM63.44 53H48.02V55H63.44V53ZM48.63 54.7924L56.19 48.9724L54.97 47.3876L47.41 53.2076L48.63 54.7924ZM56.1905 48.972C58.1853 47.4344 59.8057 45.7355 61.035 43.8703L59.365 42.7697C58.2743 44.4245 56.8147 45.9656 54.9695 47.388L56.1905 48.972ZM61.0406 43.8617C62.3133 41.8867 62.94 39.6354 62.94 37.14H60.94C60.94 39.2846 60.4067 41.1533 59.3594 42.7783L61.0406 43.8617ZM62.94 37.14C62.94 35.1862 62.5046 33.2997 61.6429 31.4901L59.8371 32.3499C60.5754 33.9003 60.94 35.4938 60.94 37.14H62.94ZM61.6511 31.5078C60.8264 29.6848 59.5944 28.0707 57.9757 26.665L56.6643 28.175C58.0856 29.4093 59.1336 30.7952 59.8289 32.3322L61.6511 31.5078ZM57.9966 26.6837C56.4008 25.2172 54.436 24.0926 52.1265 23.2948L51.4735 25.1852C53.564 25.9074 55.2792 26.9028 56.6434 28.1563L57.9966 26.6837ZM52.1473 23.3022C49.8565 22.4538 47.2757 22.04 44.42 22.04V24.04C47.0843 24.04 49.4235 24.4262 51.4527 25.1777L52.1473 23.3022ZM44.42 22.04C40.2082 22.04 36.6003 22.8867 33.6492 24.6403L34.6708 26.3597C37.2397 24.8333 40.4718 24.04 44.42 24.04V22.04ZM33.653 24.6381C30.7845 26.3254 28.6071 28.5583 27.1539 31.3365L28.9261 32.2635C30.1929 29.8417 32.0955 27.8746 34.667 26.3619L33.653 24.6381ZM27.1539 31.3365C25.7174 34.0828 25 37.0423 25 40.2H27C27 37.3577 27.6426 34.7172 28.9261 32.2635L27.1539 31.3365ZM26 41.2H38.9V39.2H26V41.2ZM39.9 40.2C39.9 39.2012 40.0778 38.319 40.4171 37.5387L38.5829 36.7413C38.1222 37.801 37.9 38.9588 37.9 40.2H39.9ZM40.4021 37.5715C40.7746 36.7927 41.265 36.2156 41.8647 35.8053L40.7353 34.1547C39.815 34.7844 39.1054 35.6473 38.5979 36.7085L40.4021 37.5715ZM41.8932 35.7851C42.4708 35.3594 43.14 35.14 43.94 35.14V33.14C42.74 33.14 41.6492 33.4805 40.7068 34.1749L41.8932 35.7851ZM43.94 35.14C44.6004 35.14 45.0879 35.245 45.4409 35.408L46.2791 33.592C45.5921 33.275 44.7996 33.14 43.94 33.14V35.14ZM45.5237 35.4417C45.9675 35.6003 46.2938 35.808 46.5329 36.0471L47.9471 34.6329C47.4662 34.152 46.8725 33.7997 46.1963 33.5583L45.5237 35.4417ZM46.5329 36.0471C46.7838 36.298 46.9607 36.5845 47.0713 36.9162L48.9687 36.2838C48.7593 35.6555 48.4162 35.102 47.9471 34.6329L46.5329 36.0471ZM47.0713 36.9162C47.1964 37.2914 47.26 37.6845 47.26 38.1H49.26C49.26 37.4755 49.1636 36.8686 48.9687 36.2838L47.0713 36.9162ZM47.26 38.1C47.26 39.0258 47.0557 39.8925 46.6456 40.7128L48.4344 41.6072C48.9843 40.5075 49.26 39.3342 49.26 38.1H47.26ZM46.6456 40.7128C46.2139 41.5761 45.5693 42.5046 44.691 43.4974L46.189 44.8226C47.1507 43.7354 47.9061 42.6639 48.4344 41.6072L46.6456 40.7128ZM44.6893 43.4994C43.8143 44.4937 42.7585 45.6691 41.521 47.0262L42.999 48.3738C44.2415 47.0109 45.3057 45.8263 46.1907 44.8206L44.6893 43.4994ZM41.5482 46.9976L23.4882 65.2976L24.9118 66.7024L42.9718 48.4024L41.5482 46.9976Z" fill="#ABABAB"/>
<defs>
<filter id="filter0_d_404_113" x="0" y="0" width="96" height="97" filterUnits="userSpaceOnUse" color-interpolation-filters="sRGB">
<feFlood flood-opacity="0" result="BackgroundImageFix"/>
<feColorMatrix in="SourceAlpha" type="matrix" values="0 0 0 0 0 0 0 0 0 0 0 0 0 0 0 0 0 0 127 0" result="hardAlpha"/>
<feOffset dx="3" dy="3"/>
<feGaussianBlur stdDeviation="3.5"/>
<feComposite in2="hardAlpha" operator="out"/>
<feColorMatrix type="matrix" values="0 0 0 0 0.579167 0 0 0 0 0.579167 0 0 0 0 0.579167 0 0 0 0.25 0"/>
<feBlend mode="normal" in2="BackgroundImageFix" result="effect1_dropShadow_404_113"/>
<feBlend mode="normal" in="SourceGraphic" in2="effect1_dropShadow_404_113" result="shape"/>
</filter>
</defs>
</svg>
