<svg width="37" height="45" viewBox="0 0 37 45" fill="none" xmlns="http://www.w3.org/2000/svg">
<path d="M15.28 22.9C19 22.9 22.38 22.56 25.42 21.88C28.5 21.16 30.96 20.02 32.8 18.46C34.64 16.86 35.56 14.72 35.56 12.04C35.56 9.76 34.92 7.72 33.64 5.92C32.36 4.12 30.48 2.7 28 1.66C25.52 0.619998 22.48 0.099998 18.88 0.099998C15.48 0.099998 12.52 0.739998 10 2.02C7.52 3.3 5.6 5.02 4.24 7.18C2.88 9.34 2.2 11.76 2.2 14.44H14.26C14.26 13.2 14.68 12.2 15.52 11.44C16.36 10.68 17.46 10.3 18.82 10.3C19.7 10.3 20.4 10.42 20.92 10.66C21.48 10.86 21.9 11.16 22.18 11.56C22.46 11.96 22.6 12.42 22.6 12.94C22.6 13.54 22.42 14.12 22.06 14.68C21.7 15.24 21.18 15.74 20.5 16.18C19.86 16.62 19.08 16.96 18.16 17.2C17.28 17.44 16.32 17.56 15.28 17.56V22.9ZM18.28 44.2C22.28 44.2 25.64 43.64 28.36 42.52C31.12 41.4 33.2 39.88 34.6 37.96C36.04 36 36.76 33.78 36.76 31.3C36.76 29.14 36.24 27.3 35.2 25.78C34.2 24.22 32.74 22.94 30.82 21.94C28.94 20.94 26.68 20.22 24.04 19.78C21.44 19.3 18.52 19.06 15.28 19.06V25.3C16.92 25.3 18.28 25.44 19.36 25.72C20.48 25.96 21.36 26.32 22 26.8C22.64 27.24 23.1 27.76 23.38 28.36C23.66 28.92 23.8 29.5 23.8 30.1C23.8 31.1 23.58 31.9 23.14 32.5C22.7 33.06 22.1 33.46 21.34 33.7C20.62 33.9 19.8 34 18.88 34C18 34 17.12 33.82 16.24 33.46C15.4 33.1 14.7 32.5 14.14 31.66C13.62 30.82 13.36 29.7 13.36 28.3H0.4C0.4 30.3 0.8 32.26 1.6 34.18C2.4 36.06 3.56 37.76 5.08 39.28C6.6 40.8 8.46 42 10.66 42.88C12.9 43.76 15.44 44.2 18.28 44.2Z" fill="#F2E5FE"/>
</svg>
