<svg width="61" height="74" viewBox="0 0 61 74" fill="none" xmlns="http://www.w3.org/2000/svg">
<path d="M24.9992 38.5C31.1992 38.5 36.8326 37.9333 41.8992 36.8C47.0326 35.6 51.1326 33.7 54.1992 31.1C57.2659 28.4333 58.7992 24.8667 58.7992 20.4C58.7992 16.6 57.7326 13.2 55.5992 10.2C53.4659 7.2 50.3326 4.83333 46.1992 3.1C42.0659 1.36666 36.9992 0.499997 30.9992 0.499997C25.3326 0.499997 20.3992 1.56666 16.1992 3.7C12.0659 5.83333 8.86589 8.7 6.59922 12.3C4.33255 15.9 3.19922 19.9333 3.19922 24.4H23.2992C23.2992 22.3333 23.9992 20.6667 25.3992 19.4C26.7992 18.1333 28.6326 17.5 30.8992 17.5C32.3659 17.5 33.5326 17.7 34.3992 18.1C35.3326 18.4333 36.0326 18.9333 36.4992 19.6C36.9659 20.2667 37.1992 21.0333 37.1992 21.9C37.1992 22.9 36.8992 23.8667 36.2992 24.8C35.6992 25.7333 34.8326 26.5667 33.6992 27.3C32.6326 28.0333 31.3326 28.6 29.7992 29C28.3326 29.4 26.7326 29.6 24.9992 29.6V38.5ZM29.9992 74C36.6659 74 42.2659 73.0667 46.7992 71.2C51.3992 69.3333 54.8659 66.8 57.1992 63.6C59.5992 60.3333 60.7992 56.6333 60.7992 52.5C60.7992 48.9 59.9326 45.8333 58.1992 43.3C56.5326 40.7 54.0992 38.5667 50.8992 36.9C47.7659 35.2333 43.9992 34.0333 39.5992 33.3C35.2659 32.5 30.3992 32.1 24.9992 32.1V42.5C27.7326 42.5 29.9992 42.7333 31.7992 43.2C33.6659 43.6 35.1326 44.2 36.1992 45C37.2659 45.7333 38.0326 46.6 38.4992 47.6C38.9659 48.5333 39.1992 49.5 39.1992 50.5C39.1992 52.1667 38.8326 53.5 38.0992 54.5C37.3659 55.4333 36.3659 56.1 35.0992 56.5C33.8992 56.8333 32.5326 57 30.9992 57C29.5326 57 28.0659 56.7 26.5992 56.1C25.1992 55.5 24.0326 54.5 23.0992 53.1C22.2326 51.7 21.7992 49.8333 21.7992 47.5H0.199219C0.199219 50.8333 0.865886 54.1 2.19922 57.3C3.53255 60.4333 5.46589 63.2667 7.99922 65.8C10.5326 68.3333 13.6326 70.3333 17.2992 71.8C21.0326 73.2667 25.2659 74 29.9992 74Z" fill="#FCFD9A"/>
<path d="M24.9992 38.5H23.4992V40H24.9992V38.5ZM41.8992 36.8L42.2267 38.2638L42.2337 38.2623L42.2407 38.2606L41.8992 36.8ZM54.1992 31.1L55.1693 32.2441L55.1764 32.2381L55.1835 32.2319L54.1992 31.1ZM55.5992 10.2L56.8217 9.33071L55.5992 10.2ZM46.1992 3.1L45.6191 4.48329L45.6191 4.48329L46.1992 3.1ZM16.1992 3.7L15.5199 2.3626L15.5113 2.36707L16.1992 3.7ZM6.59922 12.3L7.86857 13.0992L7.86857 13.0992L6.59922 12.3ZM3.19922 24.4H1.69922V25.9H3.19922V24.4ZM23.2992 24.4V25.9H24.7992V24.4H23.2992ZM34.3992 18.1L33.7706 19.4619L33.8315 19.49L33.8947 19.5126L34.3992 18.1ZM36.4992 19.6L37.7281 18.7398L37.7281 18.7398L36.4992 19.6ZM33.6992 27.3L32.8843 26.0406L32.8667 26.052L32.8494 26.0639L33.6992 27.3ZM29.7992 29L29.4206 27.5486L29.4126 27.5507L29.4045 27.5529L29.7992 29ZM24.9992 29.6V28.1H23.4992V29.6H24.9992ZM46.7992 71.2L46.2352 69.8101L46.2281 69.813L46.7992 71.2ZM57.1992 63.6L55.9904 62.7119L55.9872 62.7162L57.1992 63.6ZM58.1992 43.3L56.9364 44.1095L56.9485 44.1284L56.9613 44.147L58.1992 43.3ZM50.8992 36.9L50.1948 38.2244L50.2063 38.2304L50.8992 36.9ZM39.5992 33.3L39.3269 34.7751L39.3397 34.7774L39.3526 34.7796L39.5992 33.3ZM24.9992 32.1V30.6H23.4992V32.1H24.9992ZM24.9992 42.5H23.4992V44H24.9992V42.5ZM31.7992 43.2L31.4228 44.652L31.4537 44.66L31.4849 44.6667L31.7992 43.2ZM36.1992 45L35.2992 46.2L35.324 46.2185L35.3494 46.2361L36.1992 45ZM38.4992 47.6L37.1399 48.2343L37.1485 48.2527L37.1576 48.2708L38.4992 47.6ZM38.0992 54.5L39.2787 55.4267L39.2941 55.4071L39.3088 55.387L38.0992 54.5ZM35.0992 56.5L35.5007 57.9453L35.5259 57.9383L35.5509 57.9304L35.0992 56.5ZM26.5992 56.1L26.0083 57.4787L26.0198 57.4836L26.0313 57.4883L26.5992 56.1ZM23.0992 53.1L21.8238 53.8895L21.8371 53.911L21.8511 53.932L23.0992 53.1ZM21.7992 47.5H23.2992V46H21.7992V47.5ZM0.199219 47.5V46H-1.30078V47.5H0.199219ZM2.19922 57.3L0.814564 57.8769L0.818987 57.8873L2.19922 57.3ZM7.99922 65.8L9.05988 64.7393L9.05988 64.7393L7.99922 65.8ZM17.2992 71.8L16.7421 73.1927L16.7507 73.1961L17.2992 71.8ZM24.9992 40C31.2888 40 37.0342 39.4253 42.2267 38.2638L41.5718 35.3362C36.631 36.4414 31.1096 37 24.9992 37V40ZM42.2407 38.2606C47.5362 37.0227 51.8736 35.0383 55.1693 32.2441L53.2292 29.9559C50.3915 32.3617 46.5289 34.1773 41.5578 35.3394L42.2407 38.2606ZM55.1835 32.2319C58.6126 29.2501 60.2992 25.2524 60.2992 20.4H57.2992C57.2992 24.4809 55.9192 27.6166 53.215 29.9681L55.1835 32.2319ZM60.2992 20.4C60.2992 16.2992 59.1417 12.5932 56.8217 9.33071L54.3768 11.0693C56.3234 13.8068 57.2992 16.9008 57.2992 20.4H60.2992ZM56.8217 9.33071C54.4942 6.05779 51.1142 3.53457 46.7793 1.71671L45.6191 4.48329C49.5509 6.13209 52.4375 8.34221 54.3768 11.0693L56.8217 9.33071ZM46.7793 1.71671C42.4115 -0.114974 37.1347 -1 30.9992 -1V2C36.8637 2 41.7203 2.8483 45.6191 4.48329L46.7793 1.71671ZM30.9992 -1C25.1439 -1 19.969 0.102796 15.5199 2.36263L16.8785 5.03737C20.8295 3.03053 25.5212 2 30.9992 2V-1ZM15.5113 2.36707C11.1629 4.6114 7.75235 7.65331 5.32987 11.5008L7.86857 13.0992C9.97942 9.74669 12.9689 7.05526 16.8872 5.03293L15.5113 2.36707ZM5.32987 11.5008C2.90481 15.3523 1.69922 19.6653 1.69922 24.4H4.69922C4.69922 20.2013 5.7603 16.4476 7.86857 13.0992L5.32987 11.5008ZM3.19922 25.9H23.2992V22.9H3.19922V25.9ZM24.7992 24.4C24.7992 22.7123 25.3517 21.4658 26.4056 20.5123L24.3929 18.2877C22.6467 19.8675 21.7992 21.9543 21.7992 24.4H24.7992ZM26.4056 20.5123C27.4766 19.5433 28.9258 19 30.8992 19V16C28.3393 16 26.1219 16.7233 24.3929 18.2877L26.4056 20.5123ZM30.8992 19C32.2539 19 33.1782 19.1885 33.7706 19.4619L35.0278 16.7381C33.8869 16.2115 32.4779 16 30.8992 16V19ZM33.8947 19.5126C34.6001 19.7645 35.0179 20.0995 35.2704 20.4602L37.7281 18.7398C37.0472 17.7672 36.065 17.1021 34.9037 16.6874L33.8947 19.5126ZM35.2704 20.4602C35.5488 20.858 35.6992 21.32 35.6992 21.9H38.6992C38.6992 20.7467 38.383 19.6754 37.7281 18.7398L35.2704 20.4602ZM35.6992 21.9C35.6992 22.5814 35.4996 23.27 35.0375 23.9889L37.561 25.6111C38.2989 24.4633 38.6992 23.2186 38.6992 21.9H35.6992ZM35.0375 23.9889C34.575 24.7082 33.8765 25.3986 32.8843 26.0406L34.5141 28.5594C35.7886 27.7347 36.8234 26.7585 37.561 25.6111L35.0375 23.9889ZM32.8494 26.0639C31.9542 26.6794 30.822 27.183 29.4206 27.5486L30.1779 30.4514C31.8431 30.017 33.3109 29.3873 34.549 28.5361L32.8494 26.0639ZM29.4045 27.5529C28.083 27.9133 26.6175 28.1 24.9992 28.1V31.1C26.8476 31.1 28.5821 30.8867 30.1939 30.4471L29.4045 27.5529ZM23.4992 29.6V38.5H26.4992V29.6H23.4992ZM29.9992 75.5C36.7957 75.5 42.6033 74.5499 47.3703 72.587L46.2281 69.813C41.9284 71.5834 36.5361 72.5 29.9992 72.5V75.5ZM47.3632 72.5899C52.157 70.6446 55.8762 67.9604 58.4112 64.4838L55.9872 62.7162C53.8556 65.6396 50.6415 68.022 46.2352 69.8101L47.3632 72.5899ZM58.408 64.4881C61.0012 60.9586 62.2992 56.9461 62.2992 52.5H59.2992C59.2992 56.3206 58.1973 59.7081 55.9904 62.7119L58.408 64.4881ZM62.2992 52.5C62.2992 48.6512 61.3691 45.2766 59.4372 42.453L56.9613 44.147C58.496 46.3901 59.2992 49.1488 59.2992 52.5H62.2992ZM59.462 42.4905C57.6319 39.6355 54.9849 37.3367 51.5921 35.5696L50.2063 38.2304C53.2136 39.7966 55.4332 41.7645 56.9364 44.1095L59.462 42.4905ZM51.6036 35.5757C48.2957 33.8162 44.3666 32.5739 39.8458 31.8204L39.3526 34.7796C43.6319 35.4928 47.236 36.6505 50.1948 38.2243L51.6036 35.5757ZM39.8715 31.8249C35.431 31.0051 30.471 30.6 24.9992 30.6V33.6C30.3274 33.6 35.1008 33.9949 39.3269 34.7751L39.8715 31.8249ZM23.4992 32.1V42.5H26.4992V32.1H23.4992ZM24.9992 44C27.6591 44 29.7886 44.2283 31.4228 44.652L32.1757 41.748C30.2099 41.2384 27.806 41 24.9992 41V44ZM31.4849 44.6667C33.2243 45.0394 34.4644 45.5739 35.2992 46.2L37.0992 43.8C35.8007 42.8261 34.1075 42.1606 32.1135 41.7333L31.4849 44.6667ZM35.3494 46.2361C36.2342 46.8443 36.8047 47.5159 37.1399 48.2343L39.8585 46.9657C39.2604 45.6841 38.2976 44.6224 37.049 43.7639L35.3494 46.2361ZM37.1576 48.2708C37.5248 49.0052 37.6992 49.7431 37.6992 50.5H40.6992C40.6992 49.2569 40.407 48.0615 39.8409 46.9292L37.1576 48.2708ZM37.6992 50.5C37.6992 51.956 37.3789 52.9457 36.8896 53.613L39.3088 55.387C40.2862 54.0543 40.6992 52.3773 40.6992 50.5H37.6992ZM36.9197 53.5733C36.3946 54.2416 35.6621 54.7492 34.6475 55.0696L35.5509 57.9304C37.0697 57.4508 38.3371 56.6251 39.2787 55.4267L36.9197 53.5733ZM34.6978 55.0547C33.6545 55.3445 32.4269 55.5 30.9992 55.5V58.5C32.6383 58.5 34.1439 58.3222 35.5007 57.9453L34.6978 55.0547ZM30.9992 55.5C29.7425 55.5 28.4682 55.2439 27.1672 54.7117L26.0313 57.4883C27.6636 58.1561 29.3226 58.5 30.9992 58.5V55.5ZM27.1901 54.7213C26.0852 54.2478 25.1368 53.4521 24.3473 52.2679L21.8511 53.932C22.9283 55.5479 24.3132 56.7522 26.0083 57.4787L27.1901 54.7213ZM24.3746 52.3105C23.7038 51.2269 23.2992 49.6651 23.2992 47.5H20.2992C20.2992 50.0015 20.7613 52.1731 21.8238 53.8895L24.3746 52.3105ZM21.7992 46H0.199219V49H21.7992V46ZM-1.30078 47.5C-1.30078 51.0393 -0.591792 54.5016 0.814604 57.8769L3.58383 56.7231C2.32356 53.6984 1.69922 50.6274 1.69922 47.5H-1.30078ZM0.818987 57.8873C2.23143 61.2066 4.27656 64.1987 6.93856 66.8607L9.05988 64.7393C6.65522 62.3347 4.83368 59.6601 3.57945 56.7127L0.818987 57.8873ZM6.93856 66.8607C9.6296 69.5517 12.9062 71.6584 16.7421 73.1927L17.8563 70.4073C14.3589 69.0083 11.4355 67.115 9.05988 64.7393L6.93856 66.8607ZM16.7507 73.1961C20.6872 74.7426 25.1113 75.5 29.9992 75.5V72.5C25.4205 72.5 21.3779 71.7907 17.8477 70.4039L16.7507 73.1961Z" fill="#ABABAB"/>
</svg>
