<svg width="61" height="74" viewBox="0 0 61 74" fill="none" xmlns="http://www.w3.org/2000/svg">
<path d="M24.9992 38.5C31.1992 38.5 36.8326 37.9333 41.8992 36.8C47.0326 35.6 51.1326 33.7 54.1992 31.1C57.2659 28.4333 58.7992 24.8667 58.7992 20.4C58.7992 16.6 57.7326 13.2 55.5992 10.2C53.4659 7.2 50.3326 4.83333 46.1992 3.1C42.0659 1.36666 36.9992 0.499997 30.9992 0.499997C25.3326 0.499997 20.3992 1.56666 16.1992 3.7C12.0659 5.83333 8.86589 8.7 6.59922 12.3C4.33255 15.9 3.19922 19.9333 3.19922 24.4H23.2992C23.2992 22.3333 23.9992 20.6667 25.3992 19.4C26.7992 18.1333 28.6326 17.5 30.8992 17.5C32.3659 17.5 33.5326 17.7 34.3992 18.1C35.3326 18.4333 36.0326 18.9333 36.4992 19.6C36.9659 20.2667 37.1992 21.0333 37.1992 21.9C37.1992 22.9 36.8992 23.8667 36.2992 24.8C35.6992 25.7333 34.8326 26.5667 33.6992 27.3C32.6326 28.0333 31.3326 28.6 29.7992 29C28.3326 29.4 26.7326 29.6 24.9992 29.6V38.5ZM29.9992 74C36.6659 74 42.2659 73.0667 46.7992 71.2C51.3992 69.3333 54.8659 66.8 57.1992 63.6C59.5992 60.3333 60.7992 56.6333 60.7992 52.5C60.7992 48.9 59.9326 45.8333 58.1992 43.3C56.5326 40.7 54.0992 38.5667 50.8992 36.9C47.7659 35.2333 43.9992 34.0333 39.5992 33.3C35.2659 32.5 30.3992 32.1 24.9992 32.1V42.5C27.7326 42.5 29.9992 42.7333 31.7992 43.2C33.6659 43.6 35.1326 44.2 36.1992 45C37.2659 45.7333 38.0326 46.6 38.4992 47.6C38.9659 48.5333 39.1992 49.5 39.1992 50.5C39.1992 52.1667 38.8326 53.5 38.0992 54.5C37.3659 55.4333 36.3659 56.1 35.0992 56.5C33.8992 56.8333 32.5326 57 30.9992 57C29.5326 57 28.0659 56.7 26.5992 56.1C25.1992 55.5 24.0326 54.5 23.0992 53.1C22.2326 51.7 21.7992 49.8333 21.7992 47.5H0.199219C0.199219 50.8333 0.865886 54.1 2.19922 57.3C3.53255 60.4333 5.46589 63.2667 7.99922 65.8C10.5326 68.3333 13.6326 70.3333 17.2992 71.8C21.0326 73.2667 25.2659 74 29.9992 74Z" fill="#F2E5FE"/>
</svg>
