<svg width="66" height="66" viewBox="0 0 66 66" fill="none" xmlns="http://www.w3.org/2000/svg">
<circle cx="33" cy="33" r="33" fill="#1D1D1D"/>
<path d="M47.2301 25.6136L38.4426 22.0984L38.4397 22.0915L33.9391 20.4041V17.9033C33.9391 16.3024 32.6367 15 31.0359 15C29.4352 15 28.1327 16.3024 28.1327 17.9033V18.484H29.2939V17.9033C29.2939 16.9429 30.0754 16.1613 31.0359 16.1613C31.9964 16.1613 32.7779 16.9428 32.7779 17.9033V20.4041L28.2773 22.0915L28.2745 22.0984L19.4868 25.6136L17 39.9132L24.0682 40.5019V51H42.6488V40.5019L49.7169 39.9132L47.2301 25.6136ZM38.9488 26.2279L34.9255 27.3253L37.8514 23.6679L38.9488 26.2279ZM33.3584 21.4265L37.0495 22.8108L33.3584 27.4252L29.6673 22.8108L33.3584 21.4265ZM28.8655 23.6679L31.7913 27.3254L27.768 26.228L28.8655 23.6679ZM24.0681 39.3366L18.3621 38.861L18.5682 37.6753L24.0681 38.1753V39.3366ZM42.6487 37.0094V31.2581V30.6774H41.4874V31.2581V40.5989V49.8387H25.2295V40.5989V31.2581V30.6774H24.0682V31.2581V37.0094L18.768 36.5274L20.5204 26.4509L27.6275 23.608L26.1748 26.9973L32.7778 28.7985V47.5161H33.9391V28.7985L40.5422 26.9979L39.0894 23.6087L46.1965 26.4515L47.9489 36.528L42.6487 37.0094ZM42.6488 38.1753L48.1487 37.6753L48.3548 38.861L42.6488 39.3366V38.1753Z" fill="#FCFD9A"/>
</svg>
