<svg width="77" height="84" viewBox="0 0 77 84" fill="none" xmlns="http://www.w3.org/2000/svg">
<path d="M70.5369 24.7651L50.0326 16.563L50.026 16.5468L39.5246 12.6096V6.77434C39.5246 3.03889 36.4857 0 32.7505 0C29.0154 0 25.9762 3.03889 25.9762 6.77434V8.12932H28.6859V6.77434C28.6859 4.53347 30.5094 2.70968 32.7505 2.70968C34.9917 2.70968 36.8152 4.53318 36.8152 6.77434V12.6096L26.3138 16.5468L26.3071 16.563L5.80261 24.7651L0 58.1307L16.4925 59.5045V84H59.8473V59.5045L76.3395 58.1307L70.5369 24.7651ZM51.2139 26.1985L41.8261 28.759L48.6534 20.225L51.2139 26.1985ZM38.1696 14.9953L46.7822 18.2252L38.1696 28.9922L29.557 18.2252L38.1696 14.9953ZM27.6861 20.225L34.5131 28.7593L25.1253 26.1987L27.6861 20.225ZM16.4922 56.7853L3.1782 55.6757L3.65915 52.9091L16.4922 54.0756V56.7853ZM59.847 51.3552V37.9355V36.5805H57.1373V37.9355V59.7308V81.2903H19.2021V59.7308V37.9355V36.5805H16.4925V37.9355V51.3552L4.12536 50.2306L8.2143 26.7187L24.7975 20.0854L21.4078 27.9936L36.8149 32.1965V75.871H39.5246V32.1965L54.9317 27.9951L51.542 20.0869L68.1252 26.7202L72.2141 50.2321L59.847 51.3552ZM59.8473 54.0756L72.6804 52.9091L73.1613 55.6757L59.8473 56.7853V54.0756V54.0756Z" fill="#1D1D1D"/>
</svg>
