<svg width="29" height="29" viewBox="0 0 29 29" fill="none" xmlns="http://www.w3.org/2000/svg">
<path d="M28 24.9722C28 26.6449 26.6449 28 24.9722 28H4.02778C2.35579 28 1 26.6448 1 24.9722V4.02778C1 2.35525 2.35579 1 4.02778 1H24.9722C26.6449 1 28 2.35512 28 4.02778V24.9722Z" stroke="white" stroke-width="2"/>
<path d="M22.4733 15.08H19.6667V26H15.5V15.08H13V11.72H15.5V9.6956C15.5017 6.74888 16.7158 5 20.16 5H23V8.36H21.0942C19.7533 8.36 19.6667 8.864 19.6667 9.80732V11.72H23L22.4733 15.08Z" fill="white"/>
</svg>
