<svg width="479" height="479" viewBox="0 0 479 479" fill="none" xmlns="http://www.w3.org/2000/svg">
<path d="M242.271 453.664C213.768 453.664 186.057 448.122 160.722 437.829C152.804 434.662 148.846 425.161 152.013 417.244C155.18 409.327 164.68 405.368 172.598 408.535C216.935 426.745 267.606 426.745 311.943 408.535C334.112 399.034 353.905 386.366 371.324 368.948C377.657 362.614 387.158 362.614 393.492 368.948C399.826 375.282 399.826 384.783 393.492 391.117C373.699 410.91 349.947 426.745 323.819 437.829C297.692 448.913 270.773 453.664 242.271 453.664ZM102.133 395.867C98.1747 395.867 94.216 394.284 91.0491 391.117C71.2557 371.323 55.421 348.363 44.3367 322.236C33.2524 296.108 28.502 268.398 28.502 240.687C28.502 212.184 34.0441 184.474 44.3367 159.138C47.5036 151.221 57.0044 147.262 64.9218 150.429C72.8392 153.596 76.7978 163.097 73.6309 171.014C64.1301 193.183 60.1714 216.935 60.1714 240.687C60.1714 265.231 64.9218 288.191 73.6309 310.36C83.1317 332.528 95.7995 352.322 113.218 369.74C119.552 376.074 119.552 385.575 113.218 391.908C110.051 394.284 106.092 395.867 102.133 395.867ZM425.162 331.737C422.786 331.737 421.203 331.737 418.828 330.153C410.91 326.986 406.952 317.485 410.119 309.568C419.619 287.399 423.578 263.647 423.578 239.895C423.578 216.143 418.828 192.391 410.119 170.222C400.618 148.054 387.95 128.26 370.532 110.842C364.198 104.508 364.198 95.0075 370.532 88.6736C376.866 82.3397 386.367 82.3397 392.7 88.6736C412.494 108.467 428.329 132.219 439.413 158.346C450.497 184.474 455.248 212.184 455.248 239.895C455.248 268.398 449.705 296.108 439.413 321.444C437.038 327.778 431.495 331.737 425.162 331.737ZM102.133 116.384C98.1747 116.384 94.216 114.801 91.0491 111.634C84.7152 105.3 84.7152 95.7993 91.0491 89.4654C110.842 68.8802 134.595 53.8373 159.93 42.753C186.057 31.6687 213.768 26.9182 241.479 26.9182C269.981 26.9182 297.692 32.4604 323.028 42.753C331.737 45.9199 335.695 55.4207 332.528 63.3381C329.362 71.2554 319.861 75.2141 311.943 72.0472C267.606 53.8373 216.935 53.8373 172.598 72.0472C150.429 81.548 130.636 94.2158 113.218 111.634C110.051 114.801 106.092 116.384 102.133 116.384Z" fill="#AA77E0"/>
<path fill-rule="evenodd" clip-rule="evenodd" d="M360.239 81.5488L260.48 84.7157L304.026 0L360.239 81.5488Z" fill="#CB97FB"/>
<path fill-rule="evenodd" clip-rule="evenodd" d="M394.285 353.115L396.66 254.148L479.001 301.652L394.285 353.115Z" fill="#CB97FB"/>
<path fill-rule="evenodd" clip-rule="evenodd" d="M122.719 402.202L220.894 390.326L185.266 479L122.719 402.202Z" fill="#CB97FB"/>
<path fill-rule="evenodd" clip-rule="evenodd" d="M75.2149 116.385L88.6744 214.56L0 180.515L75.2149 116.385Z" fill="#CB97FB"/>
<g clip-path="url(#clip0_284_33)">
<path d="M277.814 155.121H207.207V188.079H277.814V155.121Z" fill="#3DC0D1"/>
<path d="M251.541 97.2875C248.383 94.6357 244.089 93.4992 239.921 94.2569C234.237 95.2671 229.563 99.9392 228.553 105.622C227.416 112.188 230.826 118.628 237.015 121.153C237.394 121.28 237.647 121.911 237.647 122.416V136.306H246.994V122.416C246.994 117.996 244.468 114.082 240.552 112.44C238.91 111.683 237.268 109.789 237.773 107.263C238.152 105.369 239.668 103.854 241.563 103.475C243.584 103.096 245.605 103.98 246.741 106C247.12 106.632 247.247 107.389 247.247 108.147C247.247 110.925 249.773 113.198 252.678 112.819C255.078 112.44 256.72 110.294 256.72 108.021C256.467 103.854 254.699 99.9392 251.541 97.2875Z" fill="#A2B0C4"/>
<path d="M207.459 155.626L224.511 147.04L228.553 134.791C229.184 132.897 230.953 131.634 232.974 131.634H251.794C253.815 131.634 255.583 132.897 256.215 134.791L260.257 147.04L277.309 155.626L273.14 164.087L242.447 150.449L211.627 164.087" fill="#C89B69"/>
<path d="M325.054 168.506C323.412 160.551 316.843 154.49 308.76 153.479C308.76 153.479 294.739 151.838 279.456 150.07C277.182 149.818 274.908 151.333 274.403 153.606C270.867 168.001 257.983 178.608 242.447 178.608C226.911 178.608 214.027 167.875 210.49 153.479C209.985 151.207 207.711 149.691 205.438 149.944L176.134 153.353C167.924 154.49 161.356 160.551 159.84 168.506L148.346 225.708L185.986 239.851V366.757H298.907V239.725L336.548 225.582L325.054 168.506Z" fill="#A0F9FA"/>
<path d="M185.986 239.851V202.221C185.986 193.003 182.955 184.164 177.523 176.84L164.513 159.414C162.24 161.94 160.471 164.97 159.84 168.506L148.346 225.708L185.986 239.851Z" fill="#63DBD8"/>
<path d="M185.986 238.841L148.977 224.951C147.335 224.319 145.567 225.203 145.062 226.719L143.925 229.749C143.293 231.391 144.178 233.159 145.693 233.664L185.986 248.817V238.841Z" fill="#3DC0D1"/>
<path d="M298.908 239.851V202.221C298.908 193.003 301.94 184.164 307.371 176.84L320.381 159.541C322.655 162.066 324.423 165.097 325.054 168.632L336.549 225.835L298.908 239.851Z" fill="#63DBD8"/>
<path d="M298.908 238.841L335.917 224.951C337.559 224.319 339.327 225.203 339.833 226.719L340.969 229.749C341.601 231.391 340.717 233.159 339.201 233.664L298.908 248.817V238.841Z" fill="#3DC0D1"/>
<path d="M298.907 366.757H185.986C184.723 366.757 183.586 365.747 183.586 364.358V359.685C183.586 358.423 184.596 357.286 185.986 357.286H298.907C300.17 357.286 301.307 358.296 301.307 359.685V364.358C301.307 365.747 300.17 366.757 298.907 366.757Z" fill="#3DC0D1"/>
<circle cx="241.886" cy="239.641" r="31.9895" fill="#FCFD9A"/>
<ellipse cx="231.221" cy="230.661" rx="2.24488" ry="5.05097" fill="#1D1D1D"/>
<ellipse cx="252.548" cy="230.661" rx="2.24488" ry="5.05097" fill="#1D1D1D"/>
<path d="M225.61 244.691C225.61 246.902 226.046 249.092 226.892 251.135C227.738 253.177 228.978 255.033 230.541 256.597C232.105 258.16 233.961 259.4 236.004 260.246C238.046 261.093 240.236 261.528 242.447 261.528C244.658 261.528 246.847 261.093 248.89 260.246C250.932 259.4 252.788 258.16 254.352 256.597C255.915 255.033 257.155 253.177 258.002 251.135C258.848 249.092 259.283 246.902 259.283 244.691L255.454 244.691C255.454 246.4 255.117 248.091 254.463 249.669C253.81 251.247 252.852 252.681 251.644 253.889C250.436 255.097 249.002 256.055 247.424 256.708C245.846 257.362 244.155 257.698 242.447 257.698C240.739 257.698 239.047 257.362 237.469 256.708C235.891 256.055 234.457 255.097 233.249 253.889C232.042 252.681 231.083 251.247 230.43 249.669C229.776 248.091 229.44 246.4 229.44 244.691L225.61 244.691Z" fill="#1D1D1D"/>
</g>
<defs>
<clipPath id="clip0_284_33">
<rect width="197.549" height="272.752" fill="white" transform="translate(143.672 94.0043)"/>
</clipPath>
</defs>
</svg>
