<svg width="179" height="179" viewBox="0 0 179 179" fill="none" xmlns="http://www.w3.org/2000/svg">
<path d="M90.5356 169.532C79.8844 169.532 69.529 167.461 60.0613 163.614C57.1026 162.431 55.6232 158.881 56.8067 155.922C57.9902 152.963 61.5406 151.484 64.4993 152.667C81.0679 159.472 100.003 159.472 116.572 152.667C124.856 149.117 132.253 144.383 138.762 137.874C141.129 135.507 144.679 135.507 147.046 137.874C149.413 140.241 149.413 143.791 147.046 146.158C139.65 153.555 130.774 159.472 121.01 163.614C111.246 167.757 101.187 169.532 90.5356 169.532ZM38.1671 147.934C36.6877 147.934 35.2084 147.342 34.0249 146.158C26.6282 138.762 20.7109 130.181 16.5687 120.418C12.4266 110.654 10.6514 100.299 10.6514 89.9435C10.6514 79.2922 12.7224 68.9369 16.5687 59.4691C17.7522 56.5104 21.3026 55.0311 24.2613 56.2146C27.22 57.398 28.6993 60.9484 27.5158 63.9071C23.9654 72.1914 22.4861 81.0674 22.4861 89.9435C22.4861 99.1153 24.2613 107.696 27.5158 115.98C31.0662 124.264 35.8001 131.661 42.3092 138.17C44.6761 140.537 44.6761 144.087 42.3092 146.454C41.1257 147.342 39.6464 147.934 38.1671 147.934ZM158.881 123.968C157.993 123.968 157.402 123.968 156.514 123.376C153.555 122.193 152.076 118.643 153.26 115.684C156.81 107.4 158.289 98.5236 158.289 89.6476C158.289 80.7716 156.514 71.8955 153.26 63.6112C149.709 55.3269 144.975 47.9303 138.466 41.4212C136.099 39.0542 136.099 35.5038 138.466 33.1369C140.833 30.7699 144.384 30.7699 146.75 33.1369C154.147 40.5336 160.065 49.4096 164.207 59.1732C168.349 68.9369 170.124 79.2922 170.124 89.6476C170.124 100.299 168.053 110.654 164.207 120.122C163.319 122.489 161.248 123.968 158.881 123.968ZM38.1671 43.4922C36.6877 43.4922 35.2084 42.9005 34.0249 41.717C31.658 39.3501 31.658 35.7997 34.0249 33.4327C41.4216 25.7402 50.2976 20.1187 59.7654 15.9766C69.529 11.8344 79.8844 10.0592 90.2398 10.0592C100.891 10.0592 111.246 12.1303 120.714 15.9766C123.969 17.16 125.448 20.7104 124.265 23.6691C123.081 26.6278 119.531 28.1071 116.572 26.9237C100.003 20.1187 81.0679 20.1187 64.4993 26.9237C56.215 30.4741 48.8183 35.208 42.3092 41.717C41.1257 42.9005 39.6464 43.4922 38.1671 43.4922Z" fill="#AA77E0"/>
<path fill-rule="evenodd" clip-rule="evenodd" d="M134.62 30.4744L97.3403 31.6578L113.613 0L134.62 30.4744Z" fill="#CB97FB"/>
<path fill-rule="evenodd" clip-rule="evenodd" d="M147.342 131.957L148.229 94.9738L179 112.726L147.342 131.957Z" fill="#CB97FB"/>
<path fill-rule="evenodd" clip-rule="evenodd" d="M45.8594 150.301L82.547 145.863L69.2329 179L45.8594 150.301Z" fill="#CB97FB"/>
<path fill-rule="evenodd" clip-rule="evenodd" d="M28.1074 43.4924L33.1372 80.18L0 67.4576L28.1074 43.4924Z" fill="#CB97FB"/>
<g clip-path="url(#clip0_133_102)">
<path d="M103.818 57.968H77.4321V70.284H103.818V57.968Z" fill="#3DC0D1"/>
<path d="M93.9998 36.3558C92.8197 35.3649 91.2149 34.9402 89.6572 35.2233C87.5332 35.6008 85.7867 37.3468 85.4091 39.4702C84.9843 41.924 86.2587 44.3306 88.5716 45.2744C88.7132 45.3216 88.8076 45.5575 88.8076 45.7462V50.9369H92.3005V45.7462C92.3005 44.0947 91.3565 42.6318 89.8933 42.0184C89.2796 41.7353 88.666 41.0274 88.8548 40.0837C88.9964 39.3759 89.5628 38.8096 90.2709 38.668C91.0261 38.5265 91.7813 38.8568 92.2061 39.6118C92.3477 39.8477 92.3949 40.1309 92.3949 40.414C92.3949 41.4521 93.339 42.3015 94.4246 42.16C95.3214 42.0184 95.935 41.2162 95.935 40.3668C95.8406 38.8096 95.1798 37.3468 93.9998 36.3558Z" fill="#A2B0C4"/>
<path d="M77.5264 58.1567L83.8986 54.9479L85.409 50.3707C85.645 49.6629 86.3058 49.191 87.0611 49.191H94.0941C94.8493 49.191 95.5101 49.6629 95.7461 50.3707L97.2566 54.9479L103.629 58.1567L102.071 61.3183L90.6012 56.222L79.084 61.3183" fill="#C89B69"/>
<path d="M121.471 62.9699C120.857 59.997 118.403 57.732 115.382 57.3545C115.382 57.3545 110.143 56.7411 104.431 56.0804C103.582 55.986 102.732 56.5523 102.543 57.4017C101.221 62.7811 96.4069 66.7449 90.6011 66.7449C84.7953 66.7449 79.9808 62.7339 78.6592 57.3545C78.4703 56.5051 77.6207 55.9389 76.7711 56.0332L65.8204 57.3073C62.7523 57.732 60.2978 59.997 59.7314 62.9699L55.436 84.3461L69.5021 89.6311V137.055H111.7V89.5839L125.766 84.2989L121.471 62.9699Z" fill="#A0F9FA"/>
<path d="M69.5021 89.6311V75.5691C69.5021 72.1243 68.3692 68.8212 66.3396 66.0843L61.4778 59.5723C60.6282 60.5161 59.9674 61.6486 59.7314 62.9699L55.436 84.3461L69.5021 89.6311Z" fill="#63DBD8"/>
<path d="M69.5022 89.2536L55.6721 84.0629C55.0585 83.827 54.3977 84.1573 54.2089 84.7236L53.7841 85.8561C53.5481 86.4695 53.8785 87.1302 54.4449 87.3189L69.5022 92.9815V89.2536Z" fill="#3DC0D1"/>
<path d="M111.7 89.6311V75.5691C111.7 72.1244 112.833 68.8212 114.863 66.0843L119.724 59.6195C120.574 60.5633 121.235 61.6958 121.471 63.0171L125.766 84.3933L111.7 89.6311Z" fill="#63DBD8"/>
<path d="M111.7 89.2536L125.53 84.0629C126.144 83.827 126.805 84.1573 126.993 84.7236L127.418 85.8561C127.654 86.4695 127.324 87.1302 126.757 87.3189L111.7 92.9815V89.2536Z" fill="#3DC0D1"/>
<path d="M111.7 137.055H69.5023C69.0303 137.055 68.6055 136.678 68.6055 136.159V134.413C68.6055 133.941 68.9831 133.516 69.5023 133.516H111.7C112.172 133.516 112.597 133.893 112.597 134.413V136.159C112.597 136.678 112.172 137.055 111.7 137.055Z" fill="#3DC0D1"/>
<circle cx="90.3913" cy="89.5525" r="11.9543" fill="#FCFD9A"/>
<ellipse cx="86.4063" cy="86.1969" rx="0.838899" ry="1.88752" fill="#1D1D1D"/>
<ellipse cx="94.376" cy="86.1969" rx="0.838899" ry="1.88752" fill="#1D1D1D"/>
<path d="M84.3091 91.44C84.3091 92.2662 84.4718 93.0844 84.788 93.8477C85.1042 94.6111 85.5677 95.3047 86.1519 95.8889C86.7361 96.4732 87.4297 96.9366 88.1931 97.2528C88.9564 97.569 89.7746 97.7317 90.6008 97.7317C91.4271 97.7317 92.2452 97.569 93.0086 97.2528C93.7719 96.9366 94.4655 96.4732 95.0498 95.8889C95.634 95.3047 96.0975 94.6111 96.4136 93.8477C96.7298 93.0844 96.8926 92.2662 96.8926 91.44L95.4615 91.44C95.4615 92.0783 95.3357 92.7103 95.0915 93.3001C94.8472 93.8898 94.4892 94.4256 94.0378 94.877C93.5865 95.3283 93.0506 95.6863 92.4609 95.9306C91.8712 96.1749 91.2391 96.3006 90.6008 96.3006C89.9625 96.3006 89.3305 96.1749 88.7408 95.9306C88.151 95.6863 87.6152 95.3283 87.1639 94.877C86.7125 94.4256 86.3545 93.8898 86.1102 93.3001C85.8659 92.7103 85.7402 92.0783 85.7402 91.44L84.3091 91.44Z" fill="#1D1D1D"/>
</g>
<defs>
<clipPath id="clip0_133_102">
<rect width="73.8231" height="101.926" fill="white" transform="translate(53.6895 35.129)"/>
</clipPath>
</defs>
</svg>
