<svg width="83" height="84" viewBox="0 0 83 84" fill="none" xmlns="http://www.w3.org/2000/svg">
<path d="M78.19 31.9522L48.9431 22.814C48.8345 22.0579 48.699 21.2833 48.53 20.488C48.2155 19.007 46.7609 18.0603 45.2788 18.3755C44.7449 18.4889 44.2823 18.752 43.9215 19.1095V15.3408C43.9215 13.8267 42.694 12.5992 41.1798 12.5992C39.2181 12.5992 37.6221 11.0032 37.6221 9.04148C37.6221 7.07979 39.2181 5.4833 41.18 5.4833C43.1419 5.4833 44.7379 7.0793 44.7379 9.04116C44.7379 10.5553 45.9654 11.7828 47.4795 11.7828C48.9936 11.7828 50.2212 10.5553 50.2212 9.04116C50.2212 4.05579 46.1652 0 41.18 0C36.1948 0 32.139 4.05579 32.139 9.04116C32.139 13.071 34.7894 16.4935 38.4384 17.6574V21.2449L4.17013 31.952C1.34842 32.8337 -0.375876 35.5947 0.0698821 38.5171C0.51564 41.4396 2.98495 43.5607 5.94135 43.5607H25.4518C25.1311 44.2273 24.9585 44.9649 24.9585 45.7268V79.0043C24.9585 81.7589 27.1996 84 29.9542 84H52.4057C55.1603 84 57.4014 81.7589 57.4014 79.0043V45.7268C57.4014 44.9651 57.2288 44.2273 56.9082 43.5607H76.4187C79.3749 43.5607 81.8442 41.4396 82.29 38.5171C82.7359 35.595 81.0118 32.834 78.19 31.9522ZM5.94152 38.0774C5.71445 38.0774 5.5248 37.9145 5.49034 37.6901C5.45605 37.4655 5.58862 37.2535 5.80551 37.1858L41.18 26.1332L43.7906 26.9489C43.8235 28.8222 43.645 30.4935 43.3486 31.9577C42.6758 31.6337 41.9347 31.4583 41.18 31.4583C40.0216 31.4583 38.8917 31.8647 37.9987 32.6023L31.3704 38.0774H5.94152ZM51.9181 78.5167H30.442V45.9565L41.18 37.0865L41.4479 37.3078C41.1054 37.9436 40.8706 38.3155 40.5945 38.705C39.7888 39.8421 39.953 41.3936 40.9754 42.3404C42.189 43.4641 44.1212 43.2477 45.0553 41.8804C45.2962 41.5277 45.528 41.1731 45.7268 40.8425C47.0167 41.9081 50.5841 44.8547 51.9181 45.9567V78.5167ZM76.8695 37.6899C76.8352 37.9144 76.6456 38.0773 76.4187 38.0773H50.9896L48.0436 35.6437C48.6603 33.6758 49.1315 31.3397 49.2479 28.6537L76.5547 37.1854C76.7714 37.2535 76.9038 37.4655 76.8695 37.6899Z" fill="#1D1D1D"/>
<path d="M46.5421 63.7139C44.5727 63.7139 43.0664 64.5481 43.0664 66.8419V70.132C43.0664 72.4259 44.5725 73.26 46.5421 73.26C48.4885 73.26 50.0177 72.4257 50.0177 70.132V66.8419C50.0176 64.5481 48.4885 63.7139 46.5421 63.7139ZM47.7007 70.1322C47.7007 70.8967 47.2605 71.2443 46.5421 71.2443C45.8238 71.2443 45.4066 70.8967 45.4066 70.1322V66.842C45.4066 66.0773 45.8236 65.7299 46.5421 65.7299C47.2605 65.7299 47.7007 66.0773 47.7007 66.842V70.1322Z" fill="#1D1D1D"/>
<path d="M35.9071 56.2531C33.9377 56.2531 32.4316 57.0874 32.4316 59.3811V62.6712C32.4316 64.9652 33.9376 65.7993 35.9071 65.7993C37.8537 65.7993 39.3828 64.965 39.3828 62.6712V59.3811C39.3828 57.0874 37.8537 56.2531 35.9071 56.2531ZM37.0658 62.6712C37.0658 63.4359 36.6256 63.7834 35.9071 63.7834C35.1889 63.7834 34.772 63.4359 34.772 62.6712V59.3811C34.772 58.6164 35.1889 58.2689 35.9071 58.2689C36.6256 58.2689 37.0658 58.6164 37.0658 59.3811V62.6712Z" fill="#1D1D1D"/>
<path d="M45.1982 55.303C44.7813 55.303 44.4104 55.4884 44.2251 55.8822L36.0924 72.5882C36.0228 72.7273 35.9766 72.8894 35.9766 73.0285C35.9766 73.6078 36.4863 74.2565 37.2741 74.2565C37.7145 74.2565 38.1545 74.0247 38.3169 73.6774L46.473 56.9714C46.5422 56.8323 46.5655 56.67 46.5655 56.531C46.5652 55.7897 45.8467 55.303 45.1982 55.303Z" fill="#1D1D1D"/>
</svg>
