<svg width="66" height="66" viewBox="0 0 66 66" fill="none" xmlns="http://www.w3.org/2000/svg">
<circle cx="33" cy="33" r="33" fill="#1D1D1D"/>
<path d="M48.51 28.6938L35.9756 24.7774C35.9291 24.4534 35.871 24.1214 35.7986 23.7806C35.6638 23.1458 35.0404 22.7401 34.4052 22.8752C34.1764 22.9238 33.9781 23.0366 33.8235 23.1898V21.5746C33.8235 20.9257 33.2974 20.3996 32.6485 20.3996C31.8078 20.3996 31.1238 19.7156 31.1238 18.8749C31.1238 18.0342 31.8078 17.35 32.6486 17.35C33.4894 17.35 34.1734 18.034 34.1734 18.8748C34.1734 19.5237 34.6994 20.0498 35.3484 20.0498C35.9973 20.0498 36.5234 19.5237 36.5234 18.8748C36.5234 16.7382 34.7851 15 32.6486 15C30.5121 15 28.7739 16.7382 28.7739 18.8748C28.7739 20.6019 29.9098 22.0687 31.4736 22.5675V24.105L16.7872 28.6937C15.5779 29.0716 14.8389 30.2549 15.0299 31.5073C15.221 32.7598 16.2793 33.6689 17.5463 33.6689H25.9079C25.7705 33.9546 25.6965 34.2707 25.6965 34.5972V48.859C25.6965 50.0395 26.657 51 27.8375 51H37.4596C38.6401 51 39.6006 50.0395 39.6006 48.859V34.5972C39.6006 34.2708 39.5266 33.9546 39.3892 33.6689H47.7509C49.0178 33.6689 50.0761 32.7598 50.2671 31.5073C50.4582 30.255 49.7193 29.0717 48.51 28.6938ZM17.5464 31.3189C17.4491 31.3189 17.3678 31.2491 17.353 31.1529C17.3383 31.0566 17.3951 30.9658 17.4881 30.9368L32.6486 26.1999L33.7674 26.5495C33.7815 27.3524 33.705 28.0686 33.578 28.6962C33.2896 28.5573 32.972 28.4821 32.6486 28.4821C32.1521 28.4821 31.6679 28.6563 31.2851 28.9724L28.4444 31.3189H17.5464ZM37.2506 48.65H28.0466V34.6957L32.6486 30.8942L32.7634 30.9891C32.6166 31.2615 32.516 31.4209 32.3976 31.5878C32.0523 32.0752 32.1227 32.7401 32.5609 33.1459C33.081 33.6275 33.9091 33.5347 34.3094 32.9487C34.4126 32.7976 34.512 32.6456 34.5972 32.5039C35.15 32.9606 36.6789 34.2234 37.2506 34.6957V48.65ZM47.9441 31.1528C47.9294 31.249 47.8481 31.3188 47.7509 31.3188H36.8527L35.5901 30.2759C35.8544 29.4325 36.0563 28.4313 36.1063 27.2801L47.8091 30.9366C47.902 30.9658 47.9588 31.0566 47.9441 31.1528Z" fill="#A0F9FA"/>
<path d="M34.9466 42.3059C34.1026 42.3059 33.457 42.6635 33.457 43.6465V45.0566C33.457 46.0397 34.1025 46.3971 34.9466 46.3971C35.7808 46.3971 36.4362 46.0396 36.4362 45.0566V43.6465C36.4361 42.6635 35.7808 42.3059 34.9466 42.3059ZM35.4431 45.0566C35.4431 45.3843 35.2545 45.5333 34.9466 45.5333C34.6388 45.5333 34.46 45.3843 34.46 45.0566V43.6466C34.46 43.3189 34.6387 43.1699 34.9466 43.1699C35.2545 43.1699 35.4431 43.3189 35.4431 43.6466V45.0566Z" fill="#A0F9FA"/>
<path d="M30.3884 39.1085C29.5444 39.1085 28.8989 39.466 28.8989 40.4491V41.8591C28.8989 42.8422 29.5443 43.1997 30.3884 43.1997C31.2227 43.1997 31.878 42.8422 31.878 41.8591V40.4491C31.878 39.466 31.2227 39.1085 30.3884 39.1085ZM30.885 41.8591C30.885 42.1868 30.6963 42.3358 30.3884 42.3358C30.0806 42.3358 29.9019 42.1868 29.9019 41.8591V40.4491C29.9019 40.1213 30.0806 39.9724 30.3884 39.9724C30.6963 39.9724 30.885 40.1213 30.885 40.4491V41.8591Z" fill="#A0F9FA"/>
<path d="M34.3706 38.7013C34.1919 38.7013 34.0329 38.7807 33.9536 38.9495L30.4681 46.1092C30.4383 46.1688 30.4185 46.2383 30.4185 46.2979C30.4185 46.5462 30.6369 46.8242 30.9746 46.8242C31.1633 46.8242 31.3519 46.7249 31.4215 46.576L34.9169 39.4163C34.9466 39.3567 34.9566 39.2871 34.9566 39.2276C34.9564 38.9098 34.6485 38.7013 34.3706 38.7013Z" fill="#A0F9FA"/>
</svg>
