<svg width="30" height="29" viewBox="0 0 30 29" fill="none" xmlns="http://www.w3.org/2000/svg">
<path d="M4.08667 1H25.9125C27.6501 1 29 2.3531 29 3.95044V25.0488C29 26.6472 27.6498 28 25.9133 28H4.08667C2.35006 28 1 26.647 1 25.0496V3.95044C1 2.35297 2.35006 1 4.08667 1Z" fill="#212121" stroke="white" stroke-width="2"/>
<path d="M20.296 9.40325C20.1758 9.34106 20.0587 9.27289 19.9453 9.199C19.6157 8.98107 19.3135 8.72431 19.0452 8.43425C18.3731 7.66554 18.1221 6.88575 18.0303 6.34029H18.0334C17.9566 5.88667 17.9883 5.59375 17.9939 5.59375H14.9341V17.4236C14.9341 17.582 14.9341 17.7395 14.9277 17.8947C14.9277 17.9137 14.9254 17.9311 14.9246 17.9525C14.9246 17.9604 14.9246 17.9699 14.9222 17.9786V17.9857C14.8901 18.4101 14.7541 18.82 14.5263 19.1795C14.2986 19.539 13.9859 19.8369 13.6159 20.0472C13.2299 20.2668 12.7934 20.382 12.3493 20.3813C10.9243 20.3813 9.76844 19.2191 9.76844 17.7838C9.76844 16.3478 10.9243 15.1856 12.3493 15.1856C12.6192 15.1856 12.8876 15.2283 13.1441 15.3123L13.1481 12.1963C12.3691 12.0957 11.5777 12.1578 10.8239 12.3786C10.0701 12.5993 9.37029 12.9739 8.76856 13.4788C8.2412 13.9368 7.79781 14.4833 7.45836 15.0938C7.32931 15.3162 6.84165 16.2116 6.78306 17.6635C6.74586 18.4868 6.99365 19.3418 7.11161 19.6941V19.702C7.18523 19.9095 7.4734 20.6188 7.94206 21.2165C8.32 21.6963 8.76654 22.1177 9.26731 22.4673V22.4594L9.27444 22.4673C10.7549 23.4727 12.3976 23.407 12.3976 23.407C12.6818 23.3952 13.6341 23.407 14.7156 22.8948C15.9149 22.3264 16.5974 21.4801 16.5974 21.4801C17.0337 20.9743 17.3806 20.398 17.6234 19.7757C17.9004 19.0473 17.9923 18.1749 17.9923 17.8266V11.5495C18.0295 11.5716 18.5243 11.8986 18.5243 11.8986C18.5243 11.8986 19.2368 12.3554 20.3475 12.6523C21.1439 12.8636 22.2182 12.9088 22.2182 12.9088V9.87113C21.8421 9.91229 21.0782 9.79354 20.2952 9.40404L20.296 9.40325Z" fill="#F8F8F8"/>
</svg>
