<svg width="96" height="97" viewBox="0 0 96 97" fill="none" xmlns="http://www.w3.org/2000/svg">
<g filter="url(#filter0_d_404_114)">
<rect x="4" y="4" width="82" height="83" rx="15" fill="white"/>
<rect x="5.5" y="5.5" width="79" height="80" rx="13.5" stroke="#CB97FB" stroke-width="3"/>
</g>
<path d="M42.28 45.9C46 45.9 49.38 45.56 52.42 44.88C55.5 44.16 57.96 43.02 59.8 41.46C61.64 39.86 62.56 37.72 62.56 35.04C62.56 32.76 61.92 30.72 60.64 28.92C59.36 27.12 57.48 25.7 55 24.66C52.52 23.62 49.48 23.1 45.88 23.1C42.48 23.1 39.52 23.74 37 25.02C34.52 26.3 32.6 28.02 31.24 30.18C29.88 32.34 29.2 34.76 29.2 37.44H41.26C41.26 36.2 41.68 35.2 42.52 34.44C43.36 33.68 44.46 33.3 45.82 33.3C46.7 33.3 47.4 33.42 47.92 33.66C48.48 33.86 48.9 34.16 49.18 34.56C49.46 34.96 49.6 35.42 49.6 35.94C49.6 36.54 49.42 37.12 49.06 37.68C48.7 38.24 48.18 38.74 47.5 39.18C46.86 39.62 46.08 39.96 45.16 40.2C44.28 40.44 43.32 40.56 42.28 40.56V45.9ZM45.28 67.2C49.28 67.2 52.64 66.64 55.36 65.52C58.12 64.4 60.2 62.88 61.6 60.96C63.04 59 63.76 56.78 63.76 54.3C63.76 52.14 63.24 50.3 62.2 48.78C61.2 47.22 59.74 45.94 57.82 44.94C55.94 43.94 53.68 43.22 51.04 42.78C48.44 42.3 45.52 42.06 42.28 42.06V48.3C43.92 48.3 45.28 48.44 46.36 48.72C47.48 48.96 48.36 49.32 49 49.8C49.64 50.24 50.1 50.76 50.38 51.36C50.66 51.92 50.8 52.5 50.8 53.1C50.8 54.1 50.58 54.9 50.14 55.5C49.7 56.06 49.1 56.46 48.34 56.7C47.62 56.9 46.8 57 45.88 57C45 57 44.12 56.82 43.24 56.46C42.4 56.1 41.7 55.5 41.14 54.66C40.62 53.82 40.36 52.7 40.36 51.3H27.4C27.4 53.3 27.8 55.26 28.6 57.18C29.4 59.06 30.56 60.76 32.08 62.28C33.6 63.8 35.46 65 37.66 65.88C39.9 66.76 42.44 67.2 45.28 67.2Z" fill="#FCFD9A"/>
<path d="M42.28 45.9H41.28V46.9H42.28V45.9ZM52.42 44.88L52.6383 45.8559L52.6476 45.8537L52.42 44.88ZM59.8 41.46L60.4467 42.2228L60.4562 42.2146L59.8 41.46ZM55 24.66L54.6133 25.5822L54.6133 25.5822L55 24.66ZM37 25.02L36.5471 24.1284L36.5414 24.1314L37 25.02ZM31.24 30.18L32.0862 30.7128L32.0862 30.7128L31.24 30.18ZM29.2 37.44H28.2V38.44H29.2V37.44ZM41.26 37.44V38.44H42.26V37.44H41.26ZM42.52 34.44L41.8491 33.6985L42.52 34.44ZM47.92 33.66L47.5009 34.568L47.5415 34.5867L47.5837 34.6017L47.92 33.66ZM49.18 34.56L49.9992 33.9865L49.9992 33.9865L49.18 34.56ZM47.5 39.18L46.9568 38.3404L46.945 38.348L46.9335 38.356L47.5 39.18ZM45.16 40.2L44.9076 39.2323L44.8969 39.2352L45.16 40.2ZM42.28 40.56V39.56H41.28V40.56H42.28ZM55.36 65.52L54.984 64.5934L54.9793 64.5953L55.36 65.52ZM61.6 60.96L60.7941 60.3679L60.792 60.3708L61.6 60.96ZM62.2 48.78L61.3581 49.3197L61.3662 49.3323L61.3747 49.3447L62.2 48.78ZM57.82 44.94L57.3504 45.8229L57.3581 45.8269L57.82 44.94ZM51.04 42.78L50.8585 43.7634L50.867 43.765L50.8756 43.7664L51.04 42.78ZM42.28 42.06V41.06H41.28V42.06H42.28ZM42.28 48.3H41.28V49.3H42.28V48.3ZM46.36 48.72L46.109 49.688L46.1297 49.6933L46.1505 49.6978L46.36 48.72ZM49 49.8L48.4 50.6L48.4165 50.6124L48.4335 50.624L49 49.8ZM50.38 51.36L49.4738 51.7829L49.4795 51.7951L49.4856 51.8072L50.38 51.36ZM50.14 55.5L50.9263 56.1178L50.9366 56.1048L50.9464 56.0914L50.14 55.5ZM48.34 56.7L48.6076 57.6635L48.6245 57.6588L48.6411 57.6536L48.34 56.7ZM43.24 56.46L42.8461 57.3791L42.8537 57.3824L42.8614 57.3855L43.24 56.46ZM41.14 54.66L40.2897 55.1864L40.2986 55.2007L40.308 55.2147L41.14 54.66ZM40.36 51.3H41.36V50.3H40.36V51.3ZM27.4 51.3V50.3H26.4V51.3H27.4ZM28.6 57.18L27.6769 57.5646L27.6798 57.5716L28.6 57.18ZM32.08 62.28L32.7871 61.5729L32.7871 61.5729L32.08 62.28ZM37.66 65.88L37.2886 66.8085L37.2943 66.8108L37.66 65.88ZM42.28 46.9C46.0597 46.9 49.5144 46.5546 52.6383 45.8559L52.2017 43.9041C49.2456 44.5654 45.9403 44.9 42.28 44.9V46.9ZM52.6476 45.8537C55.8358 45.1085 58.454 43.9122 60.4467 42.2228L59.1533 40.6972C57.466 42.1278 55.1642 43.2115 52.1924 43.9063L52.6476 45.8537ZM60.4562 42.2146C62.5378 40.4045 63.56 37.9772 63.56 35.04H61.56C61.56 37.4628 60.7422 39.3155 59.1438 40.7054L60.4562 42.2146ZM63.56 35.04C63.56 32.5594 62.8594 30.3155 61.455 28.3405L59.825 29.4995C60.9806 31.1245 61.56 32.9605 61.56 35.04H63.56ZM61.455 28.3405C60.0456 26.3585 58.0011 24.8342 55.3867 23.7378L54.6133 25.5822C56.9589 26.5658 58.6744 27.8815 59.825 29.4995L61.455 28.3405ZM55.3867 23.7378C52.7504 22.6322 49.5703 22.1 45.88 22.1V24.1C49.3897 24.1 52.2896 24.6078 54.6133 25.5822L55.3867 23.7378ZM45.88 22.1C42.3542 22.1 39.2332 22.7641 36.5471 24.1284L37.4529 25.9116C39.8068 24.7159 42.6058 24.1 45.88 24.1V22.1ZM36.5414 24.1314C33.918 25.4854 31.8576 27.3222 30.3938 29.6472L32.0862 30.7128C33.3424 28.7178 35.122 27.1146 37.4586 25.9086L36.5414 24.1314ZM30.3938 29.6472C28.9282 31.9749 28.2 34.5813 28.2 37.44H30.2C30.2 34.9387 30.8318 32.7051 32.0862 30.7128L30.3938 29.6472ZM29.2 38.44H41.26V36.44H29.2V38.44ZM42.26 37.44C42.26 36.4527 42.5816 35.7328 43.1909 35.1815L41.8491 33.6985C40.7784 34.6672 40.26 35.9473 40.26 37.44H42.26ZM43.1909 35.1815C43.8116 34.62 44.6555 34.3 45.82 34.3V32.3C44.2645 32.3 42.9084 32.74 41.8491 33.6985L43.1909 35.1815ZM45.82 34.3C46.6254 34.3 47.1638 34.4123 47.5009 34.568L48.3391 32.752C47.6362 32.4277 46.7747 32.3 45.82 32.3V34.3ZM47.5837 34.6017C47.9917 34.7475 48.2235 34.9374 48.3608 35.1335L49.9992 33.9865C49.5765 33.3826 48.9683 32.9725 48.2563 32.7183L47.5837 34.6017ZM48.3608 35.1335C48.5153 35.3542 48.6 35.6111 48.6 35.94H50.6C50.6 35.2289 50.4047 34.5658 49.9992 33.9865L48.3608 35.1335ZM48.6 35.94C48.6 36.3276 48.4869 36.7222 48.2188 37.1392L49.9012 38.2208C50.3531 37.5177 50.6 36.7524 50.6 35.94H48.6ZM48.2188 37.1392C47.9505 37.5566 47.5426 37.9613 46.9568 38.3404L48.0433 40.0196C48.8174 39.5187 49.4495 38.9234 49.9012 38.2208L48.2188 37.1392ZM46.9335 38.356C46.4078 38.7174 45.7397 39.0153 44.9076 39.2324L45.4124 41.1676C46.4204 40.9047 47.3122 40.5226 48.0665 40.004L46.9335 38.356ZM44.8969 39.2352C44.1136 39.4488 43.2433 39.56 42.28 39.56V41.56C43.3967 41.56 44.4464 41.4312 45.4231 41.1648L44.8969 39.2352ZM41.28 40.56V45.9H43.28V40.56H41.28ZM45.28 68.2C49.3665 68.2 52.865 67.6288 55.7408 66.4447L54.9793 64.5953C52.415 65.6512 49.1935 66.2 45.28 66.2V68.2ZM55.736 66.4466C58.6252 65.2742 60.8736 63.6536 62.408 61.5492L60.792 60.3708C59.5265 62.1064 57.6148 63.5258 54.984 64.5934L55.736 66.4466ZM62.4059 61.5521C63.9746 59.4168 64.76 56.9885 64.76 54.3H62.76C62.76 56.5715 62.1054 58.5832 60.7941 60.3679L62.4059 61.5521ZM64.76 54.3C64.76 51.9742 64.1977 49.9288 63.0253 48.2153L61.3747 49.3447C62.2823 50.6712 62.76 52.3058 62.76 54.3H64.76ZM63.0419 48.2403C61.9329 46.5103 60.3304 45.12 58.2819 44.0531L57.3581 45.8269C59.1496 46.76 60.4671 47.9297 61.3581 49.3197L63.0419 48.2403ZM58.2896 44.0571C56.2932 42.9952 53.9249 42.247 51.2044 41.7936L50.8756 43.7664C53.4351 44.193 55.5868 44.8848 57.3504 45.8229L58.2896 44.0571ZM51.2215 41.7966C48.5501 41.3034 45.5679 41.06 42.28 41.06V43.06C45.4721 43.06 48.3299 43.2966 50.8585 43.7634L51.2215 41.7966ZM41.28 42.06V48.3H43.28V42.06H41.28ZM42.28 49.3C43.871 49.3 45.1396 49.4366 46.109 49.688L46.611 47.752C45.4204 47.4433 43.969 47.3 42.28 47.3V49.3ZM46.1505 49.6978C47.1856 49.9196 47.9145 50.2359 48.4 50.6L49.6 49C48.8055 48.4041 47.7744 48.0004 46.5695 47.7422L46.1505 49.6978ZM48.4335 50.624C48.9522 50.9807 49.2814 51.3706 49.4738 51.7829L51.2862 50.9371C50.9186 50.1494 50.3278 49.4993 49.5665 48.976L48.4335 50.624ZM49.4856 51.8072C49.6993 52.2346 49.8 52.6621 49.8 53.1H51.8C51.8 52.3379 51.6207 51.6054 51.2744 50.9128L49.4856 51.8072ZM49.8 53.1C49.8 53.9596 49.6109 54.5305 49.3336 54.9086L50.9464 56.0914C51.5491 55.2695 51.8 54.2404 51.8 53.1H49.8ZM49.3537 54.8822C49.0525 55.2655 48.6308 55.5595 48.0389 55.7464L48.6411 57.6536C49.5692 57.3605 50.3475 56.8545 50.9263 56.1178L49.3537 54.8822ZM48.0724 55.7365C47.4569 55.9075 46.7295 56 45.88 56V58C46.8705 58 47.7831 57.8925 48.6076 57.6635L48.0724 55.7365ZM45.88 56C45.14 56 44.3882 55.8493 43.6186 55.5345L42.8614 57.3855C43.8518 57.7907 44.86 58 45.88 58V56ZM43.6339 55.5409C42.9907 55.2652 42.4361 54.8014 41.9721 54.1053L40.308 55.2147C40.9639 56.1986 41.8094 56.9348 42.8461 57.3791L43.6339 55.5409ZM41.9903 54.1336C41.6008 53.5046 41.36 52.5879 41.36 51.3H39.36C39.36 52.8121 39.6392 54.1354 40.2897 55.1864L41.9903 54.1336ZM40.36 50.3H27.4V52.3H40.36V50.3ZM26.4 51.3C26.4 53.4373 26.8282 55.5277 27.6769 57.5646L29.5231 56.7954C28.7718 54.9923 28.4 53.1627 28.4 51.3H26.4ZM27.6798 57.5716C28.5326 59.5755 29.7671 61.3813 31.3729 62.9871L32.7871 61.5729C31.3529 60.1387 30.2674 58.5445 29.5202 56.7884L27.6798 57.5716ZM31.3729 62.9871C32.998 64.6122 34.9758 65.8834 37.2886 66.8085L38.0314 64.9515C35.9442 64.1166 34.202 62.9878 32.7871 61.5729L31.3729 62.9871ZM37.2943 66.8108C39.6698 67.744 42.337 68.2 45.28 68.2V66.2C42.543 66.2 40.1302 65.776 38.0257 64.9492L37.2943 66.8108Z" fill="#ABABAB"/>
<defs>
<filter id="filter0_d_404_114" x="0" y="0" width="96" height="97" filterUnits="userSpaceOnUse" color-interpolation-filters="sRGB">
<feFlood flood-opacity="0" result="BackgroundImageFix"/>
<feColorMatrix in="SourceAlpha" type="matrix" values="0 0 0 0 0 0 0 0 0 0 0 0 0 0 0 0 0 0 127 0" result="hardAlpha"/>
<feOffset dx="3" dy="3"/>
<feGaussianBlur stdDeviation="3.5"/>
<feComposite in2="hardAlpha" operator="out"/>
<feColorMatrix type="matrix" values="0 0 0 0 0.579167 0 0 0 0 0.579167 0 0 0 0 0.579167 0 0 0 0.25 0"/>
<feBlend mode="normal" in2="BackgroundImageFix" result="effect1_dropShadow_404_114"/>
<feBlend mode="normal" in="SourceGraphic" in2="effect1_dropShadow_404_114" result="shape"/>
</filter>
</defs>
</svg>
