<svg width="57" height="57" viewBox="0 0 57 57" fill="none" xmlns="http://www.w3.org/2000/svg">
<path d="M47.1724 0H9.82759L0 15.7241V57H57V15.7241L47.1724 0Z" fill="#A98258"/>
<path d="M34.3963 26.5346H22.6032C21.5222 26.5346 20.6377 25.6501 20.6377 24.569C20.6377 23.488 21.5222 22.6035 22.6032 22.6035H34.3963C35.4774 22.6035 36.3618 23.488 36.3618 24.569C36.3618 25.6501 35.4774 26.5346 34.3963 26.5346Z" fill="#5B4631"/>
<path d="M36.3622 50.1207H20.638C20.0955 50.1207 19.6553 50.56 19.6553 51.1035C19.6553 51.647 20.0955 52.0862 20.638 52.0862H36.3622C36.9047 52.0862 37.3449 51.647 37.3449 51.1035C37.3449 50.56 36.9047 50.1207 36.3622 50.1207Z" fill="#E8D5B2"/>
<path d="M20.6383 42.2586C20.8899 42.2586 21.1415 42.1623 21.3331 41.9707L22.6038 40.7V47.1724C22.6038 47.7159 23.0441 48.1552 23.5866 48.1552C24.129 48.1552 24.5693 47.7159 24.5693 47.1724V40.7L25.84 41.9707C26.0317 42.1623 26.2832 42.2586 26.5348 42.2586C26.7864 42.2586 27.038 42.1623 27.2296 41.9707C27.6139 41.5864 27.6139 40.9653 27.2296 40.5811L24.2823 37.6338C24.1919 37.5424 24.0828 37.4706 23.962 37.4205C23.7222 37.3213 23.4509 37.3213 23.2111 37.4205C23.0903 37.4706 22.9822 37.5424 22.8908 37.6338L19.9435 40.5811C19.5592 40.9653 19.5592 41.5864 19.9435 41.9707C20.1351 42.1623 20.3867 42.2586 20.6383 42.2586Z" fill="#E8D5B2"/>
<path d="M30.4659 42.2586C30.7175 42.2586 30.9691 42.1623 31.1607 41.9707L32.4314 40.7V47.1724C32.4314 47.7159 32.8717 48.1552 33.4142 48.1552C33.9567 48.1552 34.3969 47.7159 34.3969 47.1724V40.7L35.6677 41.9707C35.8593 42.1623 36.1109 42.2586 36.3625 42.2586C36.6141 42.2586 36.8656 42.1623 37.0573 41.9707C37.4415 41.5864 37.4415 40.9653 37.0573 40.5811L34.11 37.6338C34.0196 37.5424 33.9105 37.4706 33.7896 37.4205C33.5498 37.3213 33.2786 37.3213 33.0388 37.4205C32.9179 37.4706 32.8098 37.5424 32.7184 37.6338L29.7711 40.5811C29.3868 40.9653 29.3868 41.5864 29.7711 41.9707C29.9627 42.1623 30.2143 42.2586 30.4659 42.2586Z" fill="#E8D5B2"/>
<path d="M9.82759 0L0 15.7241H57L47.1724 0H9.82759Z" fill="#DAAE86"/>
<path d="M29.4826 0H27.5171V15.7241H29.4826V0Z" fill="#F4D5BD"/>
</svg>
