<svg width="120" height="120" viewBox="0 0 120 120" fill="none" xmlns="http://www.w3.org/2000/svg">
<path d="M98.6104 0H20.5438L0 32.8701V119.154H119.154V32.8701L98.6104 0Z" fill="#A98258"/>
<path d="M71.9035 55.4684H47.2509C44.991 55.4684 43.1421 53.6194 43.1421 51.3596C43.1421 49.0998 44.991 47.2509 47.2509 47.2509H71.9035C74.1633 47.2509 76.0122 49.0998 76.0122 51.3596C76.0122 53.6194 74.1633 55.4684 71.9035 55.4684Z" fill="#5B4631"/>
<path d="M76.0124 104.774H43.1423C42.0083 104.774 41.0879 105.692 41.0879 106.828C41.0879 107.964 42.0083 108.882 43.1423 108.882H76.0124C77.1464 108.882 78.0668 107.964 78.0668 106.828C78.0668 105.692 77.1464 104.774 76.0124 104.774Z" fill="#E8D5B2"/>
<path d="M43.1423 88.3384C43.6682 88.3384 44.1941 88.1371 44.5948 87.7365L47.2511 85.0802V98.6104C47.2511 99.7464 48.1714 100.665 49.3055 100.665C50.4395 100.665 51.3598 99.7464 51.3598 98.6104V85.0802L54.0162 87.7365C54.4168 88.1371 54.9427 88.3384 55.4686 88.3384C55.9945 88.3384 56.5204 88.1371 56.9211 87.7365C57.7243 86.9332 57.7243 85.6349 56.9211 84.8316L50.76 78.6705C50.571 78.4795 50.3429 78.3295 50.0902 78.2247C49.589 78.0172 49.0219 78.0172 48.5207 78.2247C48.268 78.3295 48.042 78.4795 47.8509 78.6705L41.6899 84.8316C40.8866 85.6349 40.8866 86.9332 41.6899 87.7365C42.0905 88.1371 42.6164 88.3384 43.1423 88.3384Z" fill="#E8D5B2"/>
<path d="M63.6862 88.3384C64.2122 88.3384 64.7381 88.1371 65.1387 87.7365L67.795 85.0802V98.6104C67.795 99.7464 68.7154 100.665 69.8494 100.665C70.9834 100.665 71.9038 99.7464 71.9038 98.6104V85.0802L74.5601 87.7365C74.9607 88.1371 75.4866 88.3384 76.0125 88.3384C76.5385 88.3384 77.0644 88.1371 77.465 87.7365C78.2683 86.9332 78.2683 85.6349 77.465 84.8316L71.3039 78.6705C71.1149 78.4795 70.8869 78.3295 70.6342 78.2247C70.1329 78.0172 69.5659 78.0172 69.0646 78.2247C68.8119 78.3295 68.586 78.4795 68.3949 78.6705L62.2338 84.8316C61.4305 85.6349 61.4305 86.9332 62.2338 87.7365C62.6344 88.1371 63.1603 88.3384 63.6862 88.3384Z" fill="#E8D5B2"/>
<path d="M20.5438 0L0 32.8701H119.154L98.6104 0H20.5438Z" fill="#DAAE86"/>
<path d="M61.6317 0H57.5229V32.8701H61.6317V0Z" fill="#F4D5BD"/>
</svg>
