<svg width="51" height="30" viewBox="0 0 51 30" fill="none" xmlns="http://www.w3.org/2000/svg">
<path d="M4.63636 0C2.06318 0 0 2.05385 0 4.61538V23.0769H4.63636C4.63636 24.913 5.36907 26.674 6.6733 27.9723C7.97753 29.2706 9.74645 30 11.5909 30C13.4354 30 15.2043 29.2706 16.5085 27.9723C17.8127 26.674 18.5455 24.913 18.5455 23.0769H32.4545C32.4545 24.913 33.1873 26.674 34.4915 27.9723C35.7957 29.2706 37.5646 30 39.4091 30C41.2536 30 43.0225 29.2706 44.3267 27.9723C45.6309 26.674 46.3636 24.913 46.3636 23.0769H51V13.8462C51 11.2846 48.9368 9.23077 46.3636 9.23077L39.4091 0H4.63636ZM32.4545 3.46154H38.25L42.7936 9.23077H32.4545V3.46154ZM11.5909 19.6154C12.5131 19.6154 13.3976 19.9801 14.0497 20.6292C14.7018 21.2784 15.0682 22.1589 15.0682 23.0769C15.0682 23.995 14.7018 24.8754 14.0497 25.5246C13.3976 26.1738 12.5131 26.5385 11.5909 26.5385C10.6687 26.5385 9.78422 26.1738 9.1321 25.5246C8.47999 24.8754 8.11364 23.995 8.11364 23.0769C8.11364 22.1589 8.47999 21.2784 9.1321 20.6292C9.78422 19.9801 10.6687 19.6154 11.5909 19.6154ZM39.4091 19.6154C40.3313 19.6154 41.2158 19.9801 41.8679 20.6292C42.52 21.2784 42.8864 22.1589 42.8864 23.0769C42.8864 23.995 42.52 24.8754 41.8679 25.5246C41.2158 26.1738 40.3313 26.5385 39.4091 26.5385C38.4869 26.5385 37.6024 26.1738 36.9503 25.5246C36.2982 24.8754 35.9318 23.995 35.9318 23.0769C35.9318 22.1589 36.2982 21.2784 36.9503 20.6292C37.6024 19.9801 38.4869 19.6154 39.4091 19.6154Z" fill="black"/>
</svg>
