<svg width="58" height="58" viewBox="0 0 58 58" fill="none" xmlns="http://www.w3.org/2000/svg">
<g clip-path="url(#clip0_154_107)">
<path d="M1.54082 21.8407L0.543945 10.2406C0.543945 10.2406 8.42832 6.97815 11.1471 6.52502C15.4971 5.80002 23.8346 4.71252 29.0002 4.71252C34.1658 4.71252 42.4127 5.80002 46.8533 6.52502C49.6627 6.97815 57.4564 10.2406 57.4564 10.2406L56.4596 21.8407L45.4939 22.6563C45.3127 35.0719 47.2158 50.2969 47.8502 55.3719C47.8502 55.3719 39.7846 55.7344 29.0002 55.825C18.2158 55.7344 10.1502 55.3719 10.1502 55.3719C10.7846 50.2969 12.6877 35.0719 12.5064 22.6563L1.54082 21.8407Z" fill="#FF99B6"/>
<path d="M29 11.2375H30.0875V55.825H29V11.2375Z" fill="#FF78A5"/>
<path d="M23.8345 5.07501H34.2563V11.4188H23.8345V5.07501Z" fill="#FF78A5"/>
<path d="M19.7563 0H38.2438V5.98125H19.7563V0Z" fill="#FF99B6"/>
<path d="M38.2438 0L41.7781 5.61875L35.0719 16.0406L29 11.4188L38.2438 0Z" fill="#FFD2DF"/>
<path d="M19.7561 0L16.2217 5.61875L22.9279 16.0406L28.9998 11.4188L19.7561 0Z" fill="#FFD2DF"/>
<path d="M26.1907 20.8437C27.492 20.8437 28.547 19.7888 28.547 18.4875C28.547 17.1862 27.492 16.1312 26.1907 16.1312C24.8894 16.1312 23.8345 17.1862 23.8345 18.4875C23.8345 19.7888 24.8894 20.8437 26.1907 20.8437Z" fill="#FF78A5"/>
<path d="M26.1904 20.3C27.4417 20.3 28.4561 19.3668 28.4561 18.2156C28.4561 17.0644 27.4417 16.1312 26.1904 16.1312C24.9392 16.1312 23.9248 17.0644 23.9248 18.2156C23.9248 19.3668 24.9392 20.3 26.1904 20.3Z" fill="#FFF3F7"/>
<path d="M26.1907 28.5469C27.492 28.5469 28.547 27.4919 28.547 26.1906C28.547 24.8893 27.492 23.8344 26.1907 23.8344C24.8894 23.8344 23.8345 24.8893 23.8345 26.1906C23.8345 27.4919 24.8894 28.5469 26.1907 28.5469Z" fill="#FF78A5"/>
<path d="M26.1904 28.0031C27.4417 28.0031 28.4561 27.0699 28.4561 25.9187C28.4561 24.7676 27.4417 23.8344 26.1904 23.8344C24.9392 23.8344 23.9248 24.7676 23.9248 25.9187C23.9248 27.0699 24.9392 28.0031 26.1904 28.0031Z" fill="#FFF3F7"/>
<path d="M26.1907 36.25C27.492 36.25 28.547 35.195 28.547 33.8937C28.547 32.5924 27.492 31.5375 26.1907 31.5375C24.8894 31.5375 23.8345 32.5924 23.8345 33.8937C23.8345 35.195 24.8894 36.25 26.1907 36.25Z" fill="#FF78A5"/>
<path d="M26.1904 35.7062C27.4417 35.7062 28.4561 34.773 28.4561 33.6218C28.4561 32.4707 27.4417 31.5375 26.1904 31.5375C24.9392 31.5375 23.9248 32.4707 23.9248 33.6218C23.9248 34.773 24.9392 35.7062 26.1904 35.7062Z" fill="#FFF3F7"/>
<path d="M26.1907 43.9531C27.492 43.9531 28.547 42.8982 28.547 41.5969C28.547 40.2955 27.492 39.2406 26.1907 39.2406C24.8894 39.2406 23.8345 40.2955 23.8345 41.5969C23.8345 42.8982 24.8894 43.9531 26.1907 43.9531Z" fill="#FF78A5"/>
<path d="M26.1904 43.4094C27.4417 43.4094 28.4561 42.4761 28.4561 41.325C28.4561 40.1738 27.4417 39.2406 26.1904 39.2406C24.9392 39.2406 23.9248 40.1738 23.9248 41.325C23.9248 42.4761 24.9392 43.4094 26.1904 43.4094Z" fill="#FFF3F7"/>
<path d="M26.1907 51.6562C27.492 51.6562 28.547 50.6013 28.547 49.3C28.547 47.9987 27.492 46.9437 26.1907 46.9437C24.8894 46.9437 23.8345 47.9987 23.8345 49.3C23.8345 50.6013 24.8894 51.6562 26.1907 51.6562Z" fill="#FF78A5"/>
<path d="M26.1904 51.1125C27.4417 51.1125 28.4561 50.1793 28.4561 49.0281C28.4561 47.8769 27.4417 46.9437 26.1904 46.9437C24.9392 46.9437 23.9248 47.8769 23.9248 49.0281C23.9248 50.1793 24.9392 51.1125 26.1904 51.1125Z" fill="#FFF3F7"/>
<path d="M58 10.0594L55.0094 9.0625L53.9219 22.2937L57.0938 22.0219L58 10.0594ZM0 10.0594L2.99062 9.0625L4.07812 22.2937L0.90625 22.0219L0 10.0594ZM29 53.5594C38.6969 53.3781 46.4 52.1094 47.6687 51.2937C47.7594 53.0156 47.7594 54.4656 47.85 55.6437C47.85 55.6437 39.7844 57.9094 29 58.0906C18.2156 57.9094 10.15 55.6437 10.15 55.6437C10.2406 54.5562 10.3312 53.0156 10.3312 51.2937C11.6 52.0187 19.3031 53.3781 29 53.5594Z" fill="#FFD2DF"/>
<path d="M29 53.5594H30.0875V58H29V53.5594Z" fill="#FF99B6"/>
</g>
<defs>
<clipPath id="clip0_154_107">
<rect width="58" height="58" fill="white"/>
</clipPath>
</defs>
</svg>
