<svg width="117" height="117" viewBox="0 0 117 117" fill="none" xmlns="http://www.w3.org/2000/svg">
<g clip-path="url(#clip0_154_51)">
<path d="M3.10762 44.0578L1.09668 20.6578C1.09668 20.6578 17.0014 14.0766 22.4857 13.1625C31.2607 11.7 48.0795 9.50626 58.4998 9.50626C68.9201 9.50626 85.5561 11.7 94.5139 13.1625C100.181 14.0766 115.903 20.6578 115.903 20.6578L113.892 44.0578L91.7717 45.7031C91.4061 70.7484 95.2451 101.461 96.5248 111.698C96.5248 111.698 80.2545 112.43 58.4998 112.613C36.7451 112.43 20.4748 111.698 20.4748 111.698C21.7545 101.461 25.5936 70.7484 25.2279 45.7031L3.10762 44.0578Z" fill="#FF99B6"/>
<path d="M58.5 22.6687H60.6938V112.612H58.5V22.6687Z" fill="#FF78A5"/>
<path d="M48.0796 10.2375H69.103V23.0344H48.0796V10.2375Z" fill="#FF78A5"/>
<path d="M39.853 0H77.1468V12.0656H39.853V0Z" fill="#FF99B6"/>
<path d="M77.1469 0L84.2766 11.3344L70.7484 32.3578L58.5 23.0344L77.1469 0Z" fill="#FFD2DF"/>
<path d="M39.8533 0L32.7236 11.3344L46.2518 32.3578L58.5002 23.0344L39.8533 0Z" fill="#FFD2DF"/>
<path d="M52.8327 42.0469C55.4578 42.0469 57.5858 39.9188 57.5858 37.2937C57.5858 34.6687 55.4578 32.5406 52.8327 32.5406C50.2076 32.5406 48.0796 34.6687 48.0796 37.2937C48.0796 39.9188 50.2076 42.0469 52.8327 42.0469Z" fill="#FF78A5"/>
<path d="M52.833 40.95C55.3571 40.95 57.4033 39.0675 57.4033 36.7453C57.4033 34.4231 55.3571 32.5406 52.833 32.5406C50.3089 32.5406 48.2627 34.4231 48.2627 36.7453C48.2627 39.0675 50.3089 40.95 52.833 40.95Z" fill="#FFF3F7"/>
<path d="M52.8327 57.5859C55.4578 57.5859 57.5858 55.4579 57.5858 52.8328C57.5858 50.2077 55.4578 48.0797 52.8327 48.0797C50.2076 48.0797 48.0796 50.2077 48.0796 52.8328C48.0796 55.4579 50.2076 57.5859 52.8327 57.5859Z" fill="#FF78A5"/>
<path d="M52.833 56.4891C55.3571 56.4891 57.4033 54.6066 57.4033 52.2844C57.4033 49.9622 55.3571 48.0797 52.833 48.0797C50.3089 48.0797 48.2627 49.9622 48.2627 52.2844C48.2627 54.6066 50.3089 56.4891 52.833 56.4891Z" fill="#FFF3F7"/>
<path d="M52.8327 73.125C55.4578 73.125 57.5858 70.997 57.5858 68.3719C57.5858 65.7468 55.4578 63.6187 52.8327 63.6187C50.2076 63.6187 48.0796 65.7468 48.0796 68.3719C48.0796 70.997 50.2076 73.125 52.8327 73.125Z" fill="#FF78A5"/>
<path d="M52.833 72.0281C55.3571 72.0281 57.4033 70.1456 57.4033 67.8234C57.4033 65.5012 55.3571 63.6187 52.833 63.6187C50.3089 63.6187 48.2627 65.5012 48.2627 67.8234C48.2627 70.1456 50.3089 72.0281 52.833 72.0281Z" fill="#FFF3F7"/>
<path d="M52.8327 88.6641C55.4578 88.6641 57.5858 86.536 57.5858 83.9109C57.5858 81.2859 55.4578 79.1578 52.8327 79.1578C50.2076 79.1578 48.0796 81.2859 48.0796 83.9109C48.0796 86.536 50.2076 88.6641 52.8327 88.6641Z" fill="#FF78A5"/>
<path d="M52.833 87.5672C55.3571 87.5672 57.4033 85.6847 57.4033 83.3625C57.4033 81.0403 55.3571 79.1578 52.833 79.1578C50.3089 79.1578 48.2627 81.0403 48.2627 83.3625C48.2627 85.6847 50.3089 87.5672 52.833 87.5672Z" fill="#FFF3F7"/>
<path d="M52.8327 104.203C55.4578 104.203 57.5858 102.075 57.5858 99.45C57.5858 96.8249 55.4578 94.6969 52.8327 94.6969C50.2076 94.6969 48.0796 96.8249 48.0796 99.45C48.0796 102.075 50.2076 104.203 52.8327 104.203Z" fill="#FF78A5"/>
<path d="M52.833 103.106C55.3571 103.106 57.4033 101.224 57.4033 98.9016C57.4033 96.5794 55.3571 94.6969 52.833 94.6969C50.3089 94.6969 48.2627 96.5794 48.2627 98.9016C48.2627 101.224 50.3089 103.106 52.833 103.106Z" fill="#FFF3F7"/>
<path d="M117 20.2922L110.967 18.2812L108.773 44.9719L115.172 44.4234L117 20.2922ZM0 20.2922L6.03281 18.2812L8.22656 44.9719L1.82812 44.4234L0 20.2922ZM58.5 108.042C78.0609 107.677 93.6 105.117 96.1594 103.472C96.3422 106.945 96.3422 109.87 96.525 112.247C96.525 112.247 80.2547 116.817 58.5 117.183C36.7453 116.817 20.475 112.247 20.475 112.247C20.6578 110.053 20.8406 106.945 20.8406 103.472C23.4 104.934 38.9391 107.677 58.5 108.042Z" fill="#FFD2DF"/>
<path d="M58.5 108.042H60.6938V117H58.5V108.042Z" fill="#FF99B6"/>
</g>
<defs>
<clipPath id="clip0_154_51">
<rect width="117" height="117" fill="white"/>
</clipPath>
</defs>
</svg>
