<svg width="117" height="120" viewBox="0 0 117 120" fill="none" xmlns="http://www.w3.org/2000/svg">
<path d="M18.9178 21.7298L6.8672 24.0087C3.0901 24.7338 0 28.4739 0 32.3199V112.162C0 116.008 3.14665 119.154 6.99263 119.154H58.4736L63.711 70.4418L58.4736 21.7296H18.9178V21.7298Z" fill="#FBFC92"/>
<path d="M110.08 24.0087L98.0294 21.7299H58.4736V119.154H109.955C113.801 119.154 116.947 116.008 116.947 112.162V32.3197C116.947 28.4737 113.857 24.7338 110.08 24.0087Z" fill="#F9EB6E"/>
<path d="M18.918 0V21.7298L44.8666 42.2804H72.081L98.0294 21.7298V0H18.918Z" fill="#FEFF82"/>
<path d="M69.6036 70.9845C71.4115 70.9845 72.8771 69.5189 72.8771 67.711C72.8771 65.9031 71.4115 64.4375 69.6036 64.4375C67.7957 64.4375 66.3301 65.9031 66.3301 67.711C66.3301 69.5189 67.7957 70.9845 69.6036 70.9845Z" fill="#CB97FB"/>
<path d="M69.6036 111.298C71.4115 111.298 72.8771 109.832 72.8771 108.024C72.8771 106.217 71.4115 104.751 69.6036 104.751C67.7957 104.751 66.3301 106.217 66.3301 108.024C66.3301 109.832 67.7957 111.298 69.6036 111.298Z" fill="#CB97FB"/>
<path d="M69.6036 91.1411C71.4115 91.1411 72.8771 89.6755 72.8771 87.8676C72.8771 86.0597 71.4115 84.5941 69.6036 84.5941C67.7957 84.5941 66.3301 86.0597 66.3301 87.8676C66.3301 89.6755 67.7957 91.1411 69.6036 91.1411Z" fill="#CB97FB"/>
<path d="M26.7739 7.85632V12.8664L54.5452 20.8185V38.2483H62.4015V20.8185L90.1728 12.8664V7.85632H26.7739Z" fill="#FFAA0E"/>
<path d="M31.648 27.257C31.648 27.257 27.9561 32.7076 27.9561 40.8673C27.9561 49.0271 31.648 54.4777 31.648 54.4777C40.0909 56.1007 50.617 48.7241 50.617 48.7241V33.0108C50.6172 33.0106 40.0909 25.634 31.648 27.257Z" fill="#CB97FB"/>
<path d="M85.2991 27.257C76.8561 25.634 66.3301 33.0106 66.3301 33.0106V48.7238C66.3301 48.7238 76.8561 56.1007 85.2991 54.4775C85.2991 54.4775 88.991 49.0268 88.991 40.8671C88.991 32.7074 85.2991 27.257 85.2991 27.257Z" fill="#CB97FB"/>
<path d="M74.1864 42.8313H42.7611C41.6761 42.8313 40.7969 41.9519 40.7969 40.8671C40.7969 39.7824 41.6761 38.903 42.7611 38.903H74.1864C75.2713 38.903 76.1505 39.7824 76.1505 40.8671C76.1505 41.9519 75.2708 42.8313 74.1864 42.8313Z" fill="#6E04D0"/>
<path d="M66.3297 33.0096H50.6172V48.7222H66.3297V33.0096Z" fill="#BA74FB"/>
</svg>
