<svg width="58" height="59" viewBox="0 0 58 59" fill="none" xmlns="http://www.w3.org/2000/svg">
<path d="M9.36729 10.7598L3.40034 11.8881C1.53008 12.2472 0 14.0991 0 16.0035V55.5378C0 57.442 1.55808 59.0001 3.46245 59.0001H28.9536L31.5469 34.8798L28.9536 10.7596H9.36729V10.7598Z" fill="#FBFC92"/>
<path d="M54.5068 11.888L48.5399 10.7596H28.9536V59H54.4447C56.3491 59 57.9072 57.4419 57.9072 55.5375V16.0033C57.9072 14.0989 56.377 12.2471 54.5068 11.888Z" fill="#F9EB6E"/>
<path d="M9.36719 0V10.7597L22.2158 20.9354H35.6912L48.5397 10.7597V0H9.36719Z" fill="#FEFF82"/>
<path d="M34.4646 35.1484C35.3598 35.1484 36.0855 34.4227 36.0855 33.5275C36.0855 32.6323 35.3598 31.9066 34.4646 31.9066C33.5694 31.9066 32.8438 32.6323 32.8438 33.5275C32.8438 34.4227 33.5694 35.1484 34.4646 35.1484Z" fill="#CB97FB"/>
<path d="M34.4646 55.1098C35.3598 55.1098 36.0855 54.3841 36.0855 53.4889C36.0855 52.5937 35.3598 51.868 34.4646 51.868C33.5694 51.868 32.8438 52.5937 32.8438 53.4889C32.8438 54.3841 33.5694 55.1098 34.4646 55.1098Z" fill="#CB97FB"/>
<path d="M34.4646 45.1291C35.3598 45.1291 36.0855 44.4034 36.0855 43.5082C36.0855 42.613 35.3598 41.8873 34.4646 41.8873C33.5694 41.8873 32.8438 42.613 32.8438 43.5082C32.8438 44.4034 33.5694 45.1291 34.4646 45.1291Z" fill="#CB97FB"/>
<path d="M13.2573 3.89014V6.3709L27.0085 10.3085V18.9389H30.8986V10.3085L44.6497 6.3709V3.89014H13.2573Z" fill="#FFAA0E"/>
<path d="M15.6709 13.4964C15.6709 13.4964 13.8428 16.1953 13.8428 20.2356C13.8428 24.276 15.6709 26.9749 15.6709 26.9749C19.8514 27.7785 25.0635 24.1259 25.0635 24.1259V16.3454C25.0636 16.3453 19.8514 12.6927 15.6709 13.4964Z" fill="#CB97FB"/>
<path d="M42.2364 13.4964C38.0558 12.6927 32.8438 16.3453 32.8438 16.3453V24.1258C32.8438 24.1258 38.0558 27.7785 42.2364 26.9748C42.2364 26.9748 44.0645 24.2759 44.0645 20.2355C44.0645 16.1952 42.2364 13.4964 42.2364 13.4964Z" fill="#CB97FB"/>
<path d="M36.7342 21.2082H21.1737C20.6365 21.2082 20.2012 20.7727 20.2012 20.2356C20.2012 19.6985 20.6365 19.2631 21.1737 19.2631H36.7342C37.2714 19.2631 37.7068 19.6985 37.7068 20.2356C37.7068 20.7727 37.2712 21.2082 36.7342 21.2082Z" fill="#6E04D0"/>
<path d="M32.8436 16.345H25.0635V24.1251H32.8436V16.345Z" fill="#BA74FB"/>
</svg>
