<svg width="79" height="120" viewBox="0 0 79 120" fill="none" xmlns="http://www.w3.org/2000/svg">
<path d="M68.5631 0H9.45724C6.94965 0.000986415 4.54502 0.997433 2.77171 2.77039C0.9984 4.54335 0.00148008 6.94779 0 9.45538V109.697C0.00246509 112.204 0.999701 114.608 2.7728 116.38C4.54589 118.153 6.94995 119.15 9.45724 119.152H68.5631C71.0708 119.149 73.4751 118.153 75.249 116.38C77.0229 114.608 78.0215 112.204 78.026 109.697V9.47027C78.023 6.96217 77.0248 4.55775 75.2506 2.78495C73.4764 1.01215 71.0712 0.015878 68.5631 0.0148933" fill="#405866"/>
<path d="M62.4308 7.2157H15.5914C13.6048 7.21569 11.6993 8.00358 10.2929 9.40654C8.88641 10.8095 8.0938 12.713 8.08887 14.6996V94.1311C8.09281 96.1179 8.88511 98.022 10.2918 99.4252C11.6985 100.828 13.6045 101.616 15.5914 101.615H62.4308C66.5636 101.615 69.9146 98.2454 69.9146 94.1311V14.6921C69.9146 10.5592 66.5543 7.20825 62.4308 7.20825" fill="#85CFEA"/>
<path d="M37.7098 7.21576H15.6026C13.616 7.21575 11.7106 8.00364 10.3041 9.4066C8.89764 10.8096 8.10503 12.7131 8.1001 14.6996V94.1311C8.10404 96.118 8.89634 98.0221 10.303 99.4253C11.7097 100.828 13.6157 101.616 15.6026 101.615H62.442C63.9555 101.615 65.3536 101.151 66.5302 100.388C46.616 74.4478 35.9561 39.577 37.7154 7.21204" fill="#28A6DE"/>
<path d="M45.1565 110.564C45.1565 113.947 42.4087 116.704 39.0186 116.704C35.6285 116.704 32.8807 113.948 32.8807 110.564C32.8807 107.179 35.6285 104.424 39.0186 104.424C42.4087 104.424 45.1565 107.179 45.1565 110.564ZM21.5041 110.564C21.5166 111.161 21.4098 111.755 21.19 112.31C20.9702 112.866 20.6418 113.372 20.224 113.799C19.8062 114.226 19.3074 114.565 18.7568 114.797C18.2062 115.029 17.6149 115.148 17.0175 115.148C16.4202 115.149 15.8287 115.03 15.2779 114.799C14.727 114.568 14.2278 114.229 13.8094 113.803C13.3911 113.376 13.062 112.871 12.8415 112.316C12.621 111.76 12.5135 111.167 12.5253 110.57C12.5485 109.395 13.0313 108.276 13.8701 107.453C14.7089 106.63 15.8369 106.169 17.0119 106.168C18.187 106.167 19.3156 106.627 20.1554 107.449C20.9952 108.271 21.4794 109.389 21.5041 110.564ZM56.5312 110.564C56.5139 111.164 56.6172 111.762 56.835 112.322C57.0528 112.881 57.3807 113.392 57.7992 113.822C58.2177 114.253 58.7183 114.595 59.2715 114.829C59.8247 115.063 60.4191 115.184 61.0197 115.184C61.6203 115.184 62.2147 115.063 62.7679 114.829C63.3211 114.595 63.8217 114.253 64.2402 113.822C64.6587 113.392 64.9866 112.881 65.2044 112.322C65.4221 111.762 65.5255 111.164 65.5082 110.564C65.5082 109.374 65.0353 108.232 64.1935 107.39C63.3518 106.548 62.2101 106.075 61.0197 106.075C59.8293 106.075 58.6876 106.548 57.8459 107.39C57.0041 108.232 56.5312 109.374 56.5312 110.564Z" fill="#CBD5DC"/>
<path d="M25.5975 53.8324C25.5969 56.185 26.2164 58.4821 27.3943 60.5067L25.4849 67.4245L32.6196 65.5682C34.593 66.6342 36.804 67.1927 39.0509 67.1929H39.0568C46.474 67.1929 52.5119 61.204 52.515 53.843C52.5165 50.276 51.1178 46.9219 48.5766 44.3984C46.0358 41.8751 42.6566 40.4848 39.0562 40.4832C31.6381 40.4832 25.6007 46.4717 25.5976 53.8324" fill="url(#paint0_linear_284_112)"/>
<path d="M25.117 53.8281C25.1163 56.2653 25.758 58.6445 26.9779 60.7417L25 67.9074L32.3906 65.9846C34.4269 67.0863 36.7196 67.6671 39.0526 67.668H39.0586C46.742 67.668 52.9967 61.4637 53 53.8392C53.0013 50.144 51.5523 46.6693 48.9203 44.0554C46.288 41.4419 42.788 40.0015 39.0586 40C31.3739 40 25.1202 46.2034 25.1171 53.8281H25.117ZM29.5183 60.3805L29.2423 59.9459C28.0823 58.1157 27.47 56.0007 27.4709 53.829C27.4734 47.4915 32.6713 42.3355 39.063 42.3355C42.1583 42.3368 45.0672 43.5341 47.2552 45.7064C49.443 47.8789 50.6469 50.7668 50.6461 53.8383C50.6433 60.1757 45.4452 65.3324 39.0586 65.3324H39.054C36.9745 65.3313 34.935 64.7772 33.1563 63.73L32.733 63.4809L28.3473 64.6219L29.5183 60.3804V60.3805Z" fill="url(#paint1_linear_284_112)"/>
<path d="M35.5741 48.047C35.3132 47.4715 35.0385 47.4599 34.7904 47.4498C34.5871 47.4411 34.3548 47.4418 34.1227 47.4418C33.8904 47.4418 33.513 47.5285 33.1939 47.8742C32.8745 48.2201 31.9746 49.0562 31.9746 50.7567C31.9746 52.4574 33.2229 54.1008 33.3969 54.3316C33.5712 54.562 35.8068 58.1634 39.3475 59.5489C42.2901 60.7002 42.8889 60.4712 43.5276 60.4135C44.1663 60.356 45.5886 59.5776 45.8788 58.7705C46.1692 57.9635 46.1692 57.2717 46.0821 57.1272C45.9951 56.9832 45.7627 56.8967 45.4144 56.7239C45.0659 56.551 43.3533 55.7148 43.0341 55.5994C42.7147 55.4842 42.4825 55.4267 42.2502 55.7728C42.0179 56.1183 41.3508 56.8967 41.1475 57.1272C40.9443 57.3582 40.741 57.387 40.3928 57.2141C40.0442 57.0407 38.9223 56.6761 37.5913 55.4987C36.5558 54.5825 35.8567 53.4511 35.6534 53.1051C35.4502 52.7595 35.6317 52.5722 35.8063 52.4C35.9629 52.2451 36.1548 51.9963 36.3292 51.7946C36.5028 51.5927 36.5608 51.4487 36.677 51.2182C36.7932 50.9875 36.735 50.7856 36.6481 50.6127C36.5608 50.4398 35.8839 48.7305 35.5741 48.0471" fill="white"/>
<defs>
<linearGradient id="paint0_linear_284_112" x1="38.9999" y1="67.4245" x2="38.9999" y2="40.4832" gradientUnits="userSpaceOnUse">
<stop stop-color="#1FAF38"/>
<stop offset="1" stop-color="#60D669"/>
</linearGradient>
<linearGradient id="paint1_linear_284_112" x1="39" y1="67.9074" x2="39" y2="40" gradientUnits="userSpaceOnUse">
<stop stop-color="#F9F9F9"/>
<stop offset="1" stop-color="white"/>
</linearGradient>
</defs>
</svg>
