<svg width="38" height="58" viewBox="0 0 38 58" fill="none" xmlns="http://www.w3.org/2000/svg">
<path d="M33.3747 0H4.60353C3.38291 0.000480161 2.21239 0.485524 1.34919 1.34855C0.485995 2.21158 0.000720466 3.382 0 4.60263V53.3974C0.00119994 54.6179 0.486628 55.788 1.34972 56.6509C2.21282 57.5138 3.38305 57.999 4.60353 58H33.3747C34.5954 57.9988 35.7658 57.5136 36.6292 56.6508C37.4927 55.788 37.9788 54.618 37.981 53.3974V4.60988C37.9795 3.389 37.4937 2.21859 36.63 1.35564C35.7664 0.492686 34.5956 0.007729 33.3747 0.00724966" fill="#405866"/>
<path d="M30.3897 3.51241H7.58952C6.62251 3.51241 5.69498 3.89593 5.01035 4.57886C4.32572 5.26179 3.9399 6.18836 3.9375 7.15537V45.8205C3.93942 46.7877 4.32509 47.7145 5.00982 48.3976C5.69455 49.0806 6.62236 49.464 7.58952 49.4635H30.3897C32.4015 49.4635 34.0327 47.8232 34.0327 45.8205V7.15174C34.0327 5.13996 32.3969 3.50879 30.3897 3.50879" fill="#85CFEA"/>
<path d="M18.3561 3.51243H7.59489C6.62788 3.51243 5.70035 3.89595 5.01572 4.57888C4.33109 5.2618 3.94527 6.18838 3.94287 7.15539V45.8205C3.94479 46.7877 4.33046 47.7146 5.01519 48.3976C5.69992 49.0806 6.62773 49.464 7.59489 49.4635H30.3951C31.1318 49.4635 31.8124 49.2379 32.3851 48.8663C22.6914 36.2392 17.5025 19.265 18.3588 3.51062" fill="#28A6DE"/>
<path d="M21.9811 53.8196C21.9811 55.4662 20.6435 56.8083 18.9933 56.8083C17.3431 56.8083 16.0056 55.4671 16.0056 53.8196C16.0056 52.1721 17.3431 50.8309 18.9933 50.8309C20.6435 50.8309 21.9811 52.1721 21.9811 53.8196ZM10.4677 53.8196C10.4738 54.1103 10.4219 54.3993 10.3149 54.6697C10.2079 54.9401 10.048 55.1864 9.84463 55.3942C9.64124 55.6021 9.39844 55.7672 9.13043 55.88C8.86242 55.9928 8.57459 56.051 8.28381 56.0512C7.99303 56.0514 7.70513 55.9936 7.43698 55.8811C7.16883 55.7686 6.92582 55.6038 6.72218 55.3962C6.51854 55.1886 6.35836 54.9425 6.25103 54.6722C6.1437 54.402 6.09137 54.1131 6.09711 53.8223C6.10839 53.2504 6.34341 52.7058 6.75172 52.3052C7.16003 51.9046 7.70909 51.68 8.28109 51.6797C8.85309 51.6793 9.40244 51.9032 9.81125 52.3033C10.2201 52.7033 10.4557 53.2477 10.4677 53.8196ZM27.518 53.8196C27.5096 54.1118 27.5599 54.4028 27.6659 54.6752C27.7719 54.9476 27.9315 55.196 28.1352 55.4057C28.339 55.6154 28.5827 55.782 28.8519 55.8959C29.1212 56.0097 29.4106 56.0683 29.7029 56.0683C29.9952 56.0683 30.2846 56.0097 30.5539 55.8959C30.8232 55.782 31.0669 55.6154 31.2706 55.4057C31.4743 55.196 31.6339 54.9476 31.7399 54.6752C31.8459 54.4028 31.8962 54.1118 31.8878 53.8196C31.8878 53.2401 31.6576 52.6844 31.2478 52.2747C30.8381 51.8649 30.2824 51.6347 29.7029 51.6347C29.1234 51.6347 28.5677 51.8649 28.158 52.2747C27.7482 52.6844 27.518 53.2401 27.518 53.8196Z" fill="#CBD5DC"/>
</svg>
