<svg width="56" height="56" viewBox="0 0 56 56" fill="none" xmlns="http://www.w3.org/2000/svg">
<g clip-path="url(#clip0_154_133)">
<path d="M54.6875 19.5125C56.175 21 56.4375 23.1875 55.3875 24.5L29.4875 54.6C27.9125 56.4375 25.2 56.4375 23.3625 54.6875L1.3125 32.6375C-0.437495 30.8875 -0.437495 28.0875 1.4 26.5125L31.4125 0.700018C32.725 -0.437482 34.9125 -0.0874819 36.4 1.40002L54.6875 19.5125Z" fill="#AFCDDB"/>
<path d="M44.4498 9.36248L11.0248 42.35L3.2373 34.5625L38.0623 2.97498L44.4498 9.36248Z" fill="#333333"/>
<path d="M43.2249 16.0125L19.7749 40.075L26.0749 46.375L48.7374 21.525L43.2249 16.0125Z" fill="white"/>
<path d="M29.8374 37.8875C28.5249 36.6625 29.3124 34.3875 29.7499 33.1625C30.5374 31.2375 31.3249 34.9125 31.3249 35.525C31.4999 37.3625 31.2374 39.2875 30.7999 41.125C30.5374 42.175 30.1874 43.1375 29.6624 44.1C29.3999 44.7125 28.9624 45.2375 28.4374 45.5875C27.1249 46.375 26.3374 45.5875 26.0749 43.4C26.2499 42.7 26.5124 42.0875 27.0374 41.5625C28.6999 39.4625 31.3249 38.5 33.2499 36.8375C33.4249 36.6625 33.1624 36.4 32.9874 36.575C30.7124 38.5 25.9874 40.075 25.7249 43.8375C25.5499 46.2875 28.0874 46.9 29.3999 45.5C31.1499 43.6625 31.5874 40.425 31.7624 37.975C31.8499 36.575 32.1999 32.55 30.0999 32.1125C30.0124 32.1125 29.9249 32.1125 29.9249 32.2C29.0499 33.6875 27.9124 36.75 29.6624 38.325C29.7499 38.4125 30.0124 38.0625 29.8374 37.8875Z" fill="#4F5B60"/>
<path d="M32.7251 36.4875C34.5626 37.5375 35.0876 33.425 34.8251 32.2875C34.8251 32.1125 34.5626 32.1125 34.4751 32.2C33.5126 32.9875 33.3376 35.0875 34.1251 36.3125C34.2126 36.4875 34.3876 36.4875 34.4751 36.3125C35.0876 35.175 35.4376 34.0375 35.8751 32.8125C36.0501 32.2875 36.4876 32.4625 36.8376 32.1125L38.9376 30.0125C39.8126 29.1375 40.0751 27.9125 40.8626 27.0375C41.9126 25.9 42.8751 25.375 43.4001 23.8C43.4876 23.45 43.4876 22.575 42.8751 22.575C41.6501 22.4875 40.6001 25.025 42.2626 24.7625C44.1876 24.5 45.9376 22.225 47.1626 21C47.3376 20.825 47.0751 20.5625 46.9001 20.7375C46.2876 21.35 45.5876 21.9625 44.9751 22.4875C44.4501 22.925 43.9251 23.3625 43.3126 23.8C43.0501 23.975 40.7751 25.025 42.1751 23.3625C42.4376 23.5375 42.7001 23.7125 42.9626 23.975C42.8751 24.15 42.7876 24.4125 42.7001 24.5875C42.5251 24.9375 42.2626 25.2875 42.0001 25.6375C41.5626 26.25 40.7751 26.6 40.2501 27.2125C39.5501 28 39.2876 29.05 38.5876 29.8375C38.2376 30.1875 36.5751 32.375 35.9626 32.1125C35.8751 32.1125 35.7876 32.1125 35.7876 32.2C35.6126 32.8125 35.4376 33.3375 35.1751 33.95C35.0876 34.125 34.3001 35.7875 34.3001 35.875C33.9501 35 34.0376 33.95 34.3876 33.1625C34.6501 33.6 34.6501 34.125 34.4751 34.5625C34.3001 35.6125 33.7751 36.225 32.9001 36.4C32.6376 35.9625 32.4626 36.3125 32.7251 36.4875Z" fill="#4F5B60"/>
</g>
<defs>
<clipPath id="clip0_154_133">
<rect width="56" height="56" fill="white"/>
</clipPath>
</defs>
</svg>
