<svg width="119" height="119" viewBox="0 0 119 119" fill="none" xmlns="http://www.w3.org/2000/svg">
<g clip-path="url(#clip0_154_72)">
<path d="M116.211 41.4641C119.372 44.625 119.93 49.2734 117.699 52.0625L62.6611 116.025C59.3142 119.93 53.5501 119.93 49.6454 116.211L2.78919 69.3547C-0.929555 65.6359 -0.929555 59.6859 2.97513 56.3391L66.7517 1.48751C69.5408 -0.929679 74.1892 -0.18593 77.3501 2.97501L116.211 41.4641Z" fill="#AFCDDB"/>
<path d="M94.4564 19.8953L23.4283 89.9937L6.87988 73.4453L80.883 6.32187L94.4564 19.8953Z" fill="#333333"/>
<path d="M91.8532 34.0266L42.022 85.1594L55.4095 98.5469L103.567 45.7406L91.8532 34.0266Z" fill="white"/>
<path d="M63.4048 80.5109C60.6157 77.9078 62.2892 73.0735 63.2189 70.4703C64.8923 66.3797 66.5657 74.1891 66.5657 75.4906C66.9376 79.3953 66.3798 83.4859 65.4501 87.3906C64.8923 89.6219 64.1486 91.6672 63.0329 93.7125C62.4751 95.0141 61.5454 96.1297 60.4298 96.8734C57.6407 98.5469 55.9673 96.8734 55.4095 92.225C55.7814 90.7375 56.3392 89.4359 57.4548 88.3203C60.9876 83.8578 66.5657 81.8125 70.6564 78.2797C71.0282 77.9078 70.4704 77.35 70.0986 77.7219C65.2642 81.8125 55.2236 85.1594 54.6657 93.1547C54.2939 98.3609 59.6861 99.6625 62.4751 96.6875C66.1939 92.7828 67.1236 85.9031 67.4954 80.6969C67.6814 77.7219 68.4251 69.1688 63.9626 68.2391C63.7767 68.2391 63.5907 68.2391 63.5907 68.425C61.7314 71.5859 59.3142 78.0938 63.0329 81.4406C63.2189 81.6266 63.7767 80.8828 63.4048 80.5109Z" fill="#4F5B60"/>
<path d="M69.5406 77.5359C73.4453 79.7672 74.5609 71.0281 74.0031 68.6109C74.0031 68.2391 73.4453 68.2391 73.2593 68.425C71.214 70.0984 70.8421 74.5609 72.5156 77.1641C72.7015 77.5359 73.0734 77.5359 73.2593 77.1641C74.5609 74.7469 75.3046 72.3297 76.2343 69.7266C76.6062 68.6109 77.5359 68.9828 78.2796 68.2391L82.7421 63.7766C84.6015 61.9172 85.1593 59.3141 86.8328 57.4547C89.064 55.0375 91.1093 53.9219 92.225 50.575C92.4109 49.8313 92.4109 47.9719 91.1093 47.9719C88.5062 47.7859 86.275 53.1781 89.8078 52.6203C93.8984 52.0625 97.6171 47.2281 100.22 44.625C100.592 44.2531 100.034 43.6953 99.6625 44.0672C98.3609 45.3688 96.8734 46.6703 95.5718 47.7859C94.4562 48.7156 93.3406 49.6453 92.039 50.575C91.4812 50.9469 86.6468 53.1781 89.6218 49.6453C90.1796 50.0172 90.7375 50.3891 91.2953 50.9469C91.1093 51.3187 90.9234 51.8766 90.7375 52.2484C90.3656 52.9922 89.8078 53.7359 89.25 54.4797C88.3203 55.7812 86.6468 56.525 85.5312 57.8266C84.0437 59.5 83.4859 61.7312 81.9984 63.4047C81.2546 64.1484 77.7218 68.7969 76.4203 68.2391C76.2343 68.2391 76.0484 68.2391 76.0484 68.425C75.6765 69.7266 75.3046 70.8422 74.7468 72.1437C74.5609 72.5156 72.8875 76.0484 72.8875 76.2344C72.1437 74.375 72.3296 72.1438 73.0734 70.4703C73.6312 71.4 73.6312 72.5156 73.2593 73.4453C72.8875 75.6766 71.7718 76.9781 69.9125 77.35C69.3546 76.4203 68.9828 77.1641 69.5406 77.5359Z" fill="#4F5B60"/>
</g>
<defs>
<clipPath id="clip0_154_72">
<rect width="119" height="119" fill="white"/>
</clipPath>
</defs>
</svg>
