<svg width="43" height="30" viewBox="0 0 43 30" fill="none" xmlns="http://www.w3.org/2000/svg">
<path d="M6.90625 0C5.0746 0 3.31797 0.72762 2.02279 2.02279C0.72762 3.31797 0 5.0746 0 6.90625V9.5625H42.5V6.90625C42.5 5.99931 42.3214 5.10125 41.9743 4.26334C41.6272 3.42544 41.1185 2.6641 40.4772 2.02279C39.8359 1.38149 39.0746 0.872779 38.2367 0.525707C37.3988 0.178636 36.5007 0 35.5938 0H6.90625ZM42.5 12.75H0V22.8438C0 24.6754 0.72762 26.432 2.02279 27.7272C3.31797 29.0224 5.0746 29.75 6.90625 29.75H35.5938C36.5007 29.75 37.3988 29.5714 38.2367 29.2243C39.0746 28.8772 39.8359 28.3685 40.4772 27.7272C41.1185 27.0859 41.6272 26.3246 41.9743 25.4867C42.3214 24.6488 42.5 23.7507 42.5 22.8438V12.75ZM29.2188 20.1875H34.5312C34.9539 20.1875 35.3593 20.3554 35.6582 20.6543C35.9571 20.9532 36.125 21.3586 36.125 21.7812C36.125 22.2039 35.9571 22.6093 35.6582 22.9082C35.3593 23.2071 34.9539 23.375 34.5312 23.375H29.2188C28.7961 23.375 28.3907 23.2071 28.0918 22.9082C27.7929 22.6093 27.625 22.2039 27.625 21.7812C27.625 21.3586 27.7929 20.9532 28.0918 20.6543C28.3907 20.3554 28.7961 20.1875 29.2188 20.1875Z" fill="black"/>
</svg>
