<svg width="41" height="40" viewBox="0 0 41 40" fill="none" xmlns="http://www.w3.org/2000/svg">
<path d="M8.32813 17.5H1.92188C0.86044 17.5 0 18.3395 0 19.375V38.125C0 39.1605 0.86044 40 1.92188 40H8.32813C9.38957 40 10.25 39.1605 10.25 38.125V19.375C10.25 18.3395 9.38957 17.5 8.32813 17.5ZM5.125 36.875C4.06357 36.875 3.20313 36.0355 3.20313 35C3.20313 33.9645 4.06357 33.125 5.125 33.125C6.18644 33.125 7.04688 33.9645 7.04688 35C7.04688 36.0355 6.18644 36.875 5.125 36.875ZM30.75 6.36344C30.75 9.67719 28.6704 11.5359 28.0853 13.75H36.231C38.9054 13.75 40.9874 15.9177 40.9999 18.2889C41.0067 19.6903 40.3957 21.199 39.4433 22.1324L39.4345 22.141C40.2221 23.9642 40.0941 26.5189 38.6891 28.3495C39.3843 30.3726 38.6836 32.8577 37.3773 34.1899C37.7215 35.5648 37.557 36.7348 36.885 37.6768C35.2506 39.9677 31.1997 40 27.7742 40L27.5464 39.9999C23.6797 39.9986 20.5151 38.6251 17.9723 37.5214C16.6945 36.9668 15.0237 36.2802 13.7561 36.2575C13.2324 36.2481 12.8125 35.8312 12.8125 35.3202V18.6194C12.8125 18.3694 12.9152 18.1295 13.0974 17.9537C16.2696 14.8955 17.6337 11.6578 20.2338 9.11687C21.4192 7.95812 21.8504 6.20781 22.2672 4.51516C22.6233 3.06977 23.3682 0 24.9844 0C26.9063 0 30.75 0.625 30.75 6.36344Z" fill="black"/>
</svg>
